<svg width="209" height="293" viewBox="0 0 209 293" fill="none" xmlns="http://www.w3.org/2000/svg">
<g clip-path="url(#clip0_601_1667)">
<path d="M208.999 17.4326V122.552C208.999 124.75 207.217 126.533 205.034 126.533H14.3504C12.1676 126.533 10.3848 124.75 10.3848 122.552V17.4326H208.999Z" fill="white"/>
<path d="M79.836 33.8753L95.6104 28.2046L111.236 33.8007C113.229 34.7436 114.978 35.3066 114.978 37.1652V46.4242C114.978 52.8547 113.297 59.2241 109.833 64.8474C106.918 69.5821 102.403 74.4524 95.4545 77.5523C89.0688 75.4767 84.3033 69.9416 81.3883 65.2069C77.9243 59.5836 76.2432 53.2142 76.2432 46.7838V38.4608C76.2499 35.8085 77.6532 34.513 79.836 33.8753Z" fill="#4152F3"/>
<path d="M95.4609 72.18C100.959 69.7313 104.531 65.7903 106.836 62.0459C109.575 57.5962 110.91 52.5563 110.91 47.4689V40.9773C110.91 39.5054 110.022 38.1284 108.259 37.3076L95.61 32.573V28.2046L111.235 33.8007C112.876 34.5197 114.977 35.3066 114.977 37.1652V46.4242C114.977 52.8547 113.296 59.2241 109.832 64.8474C106.917 69.5821 102.402 74.4524 95.4541 77.5523V72.18H95.4609Z" fill="#322FE6"/>
<path d="M95.4607 77.5534C94.3557 77.1803 93.3389 76.7529 92.3627 76.2238C89.7461 74.7994 87.509 72.8322 85.8008 71.0618C83.8959 69.0744 82.4723 66.9309 81.2386 64.9298C77.7745 59.3066 76.0934 52.9371 76.2425 46.3303L76.2357 38.6857C76.2425 34.8803 78.1948 34.6022 79.8353 33.8832L95.6098 28.2124V32.5808L82.818 37.3901C81.0555 38.2108 80.1675 39.5878 80.1675 41.0598V47.5513C80.1675 52.6387 81.4962 57.6786 84.2416 62.1284C86.5464 65.8727 89.963 69.7323 95.4607 72.1878V77.5534Z" fill="#86A8FF"/>
<path d="M91.4277 47.0551L91.4074 45.807C91.4074 43.5482 93.2445 41.71 95.5019 41.71C97.7592 41.71 99.5963 43.5482 99.5963 45.8002L99.6166 47.0755C100.722 47.2383 101.569 48.1879 101.569 49.3411V56.7076C101.569 57.9761 100.545 59.0003 99.2777 59.0003H91.6311C90.3635 59.0003 89.3398 57.9761 89.3398 56.7076V49.3343C89.3466 48.1404 90.2618 47.1569 91.4277 47.0551ZM94.4172 54.8694H96.417L96.1052 53.4245C96.4509 53.2075 96.6814 52.8276 96.6814 52.3867C96.6814 51.7152 96.1323 51.1657 95.4612 51.1657C94.7901 51.1657 94.241 51.7152 94.241 52.3867C94.241 52.8073 94.4579 53.1803 94.7833 53.3974C94.6409 53.9672 94.4172 54.8694 94.4172 54.8694ZM92.3158 47.0415H98.7422L98.7218 45.8002C98.7218 44.0298 97.2779 42.585 95.5086 42.585C93.7393 42.585 92.2954 44.0298 92.2954 45.7934L92.3158 47.0415Z" fill="#F5F7FC"/>
<path d="M108.355 46.9668C108.388 46.9736 108.497 46.4852 108.592 45.6848C108.687 44.8844 108.755 43.772 108.721 42.5442C108.7 41.9269 108.66 41.3436 108.605 40.8145C108.551 40.2854 108.456 39.7902 108.253 39.4171C108.05 39.0441 107.772 38.8202 107.561 38.7253C107.345 38.6235 107.216 38.6303 107.209 38.6439C107.182 38.6778 107.744 38.7863 108.077 39.5053C108.239 39.8513 108.314 40.3125 108.348 40.8348C108.388 41.3639 108.422 41.9405 108.436 42.551C108.47 43.7652 108.436 44.8708 108.388 45.6713C108.355 46.4649 108.314 46.9601 108.355 46.9668Z" fill="white"/>
<path d="M108.117 50.996C108.191 50.996 108.259 50.6162 108.273 50.1481C108.279 49.6801 108.225 49.2935 108.151 49.2935C108.076 49.2935 108.008 49.6733 107.995 50.1414C107.988 50.6094 108.042 50.9893 108.117 50.996Z" fill="white"/>
<path d="M180.874 29.5883V76.4941C180.874 77.9932 179.668 79.2006 178.17 79.2006H131.294C129.809 79.2006 128.589 77.9932 128.589 76.4941V29.5883C128.589 28.1028 129.802 26.8818 131.294 26.8818H178.17C179.668 26.8818 180.874 28.096 180.874 29.5883Z" fill="#4152F3"/>
<path d="M154.735 58.5933C160.018 58.5933 164.3 54.3082 164.3 49.0223C164.3 43.7363 160.018 39.4512 154.735 39.4512C149.452 39.4512 145.17 43.7363 145.17 49.0223C145.17 54.3082 149.452 58.5933 154.735 58.5933Z" fill="white"/>
<path d="M171.858 75.7344C171.858 76.9214 171.736 78.0746 171.513 79.1938H137.95C137.727 78.0678 137.604 76.9147 137.604 75.7344C137.604 66.2651 145.271 58.5933 154.735 58.5933C164.185 58.5933 171.858 66.2651 171.858 75.7344Z" fill="white"/>
<path d="M183.037 88.3105H126.433C126.209 88.3105 126.026 88.1274 126.026 87.9035V87.2048C126.026 86.981 126.209 86.7979 126.433 86.7979H183.037C183.261 86.7979 183.444 86.981 183.444 87.2048V87.9035C183.444 88.1274 183.261 88.3105 183.037 88.3105Z" fill="#4152F3"/>
<path d="M165.114 96.9184H144.35C144.126 96.9184 143.943 96.7353 143.943 96.5114V95.8128C143.943 95.5889 144.126 95.4058 144.35 95.4058H165.114C165.338 95.4058 165.521 95.5889 165.521 95.8128V96.5114C165.527 96.7285 165.344 96.9184 165.114 96.9184Z" fill="#C0D2FF"/>
<path d="M140.751 116.44C142.634 116.44 144.16 114.913 144.16 113.028C144.16 111.144 142.634 109.616 140.751 109.616C138.867 109.616 137.341 111.144 137.341 113.028C137.341 114.913 138.867 116.44 140.751 116.44Z" fill="#C0D2FF"/>
<path d="M151.325 113.028C151.325 114.914 152.85 116.44 154.735 116.44C156.62 116.44 158.145 114.914 158.145 113.028C158.145 111.142 156.62 109.616 154.735 109.616C152.85 109.623 151.325 111.149 151.325 113.028Z" fill="#C0D2FF"/>
<path d="M165.311 113.028C165.311 114.914 166.836 116.44 168.72 116.44C170.605 116.44 172.13 114.914 172.13 113.028C172.13 111.142 170.605 109.616 168.72 109.616C166.836 109.623 165.311 111.149 165.311 113.028Z" fill="#C0D2FF"/>
<path d="M164.429 151.123H75.6392C74.5207 151.123 73.6123 150.214 73.6123 149.094V119.255C73.6123 118.136 74.5207 117.227 75.6392 117.227H164.429C165.548 117.227 166.456 118.136 166.456 119.255V149.094C166.456 150.214 165.554 151.123 164.429 151.123Z" fill="#C0D2FF"/>
<path d="M155.067 124.207H108.259V125.706H155.067V124.207Z" fill="white"/>
<path d="M155.067 132.672H108.259V134.171H155.067V132.672Z" fill="white"/>
<path d="M155.067 141.145H108.259V142.644H155.067V141.145Z" fill="white"/>
<path d="M93.1838 144.781C99.4764 143.687 103.691 137.695 102.596 131.398C101.502 125.102 95.5143 120.885 89.2217 121.98C82.9292 123.074 78.7151 129.066 79.8092 135.363C80.9033 141.659 86.8913 145.876 93.1838 144.781Z" fill="#FCA838"/>
<path d="M94.1148 142.762C99.2925 141.155 102.188 135.652 100.581 130.471C98.9752 125.29 93.4757 122.393 88.298 124C83.1202 125.608 80.225 131.111 81.8313 136.292C83.4376 141.473 88.9371 144.37 94.1148 142.762Z" fill="#FDA218"/>
<path d="M96.2264 141.837C94.4232 141.993 92.5522 141.647 90.8304 140.738C86.0309 138.208 84.1938 132.272 86.7156 127.47C87.5901 125.801 88.878 124.492 90.3897 123.597C87.1698 123.875 84.1464 125.733 82.533 128.806C80.0045 133.609 81.8483 139.544 86.6478 142.074C89.7729 143.729 93.386 143.519 96.2264 141.837Z" fill="#FC8000"/>
<path d="M94.1792 125.801C98.416 128.033 100.036 133.276 97.8127 137.509C96.5111 139.985 94.1792 141.572 91.6168 142.013C94.613 141.898 97.467 140.229 98.9651 137.387C101.195 133.147 99.5684 127.911 95.3384 125.679C93.5759 124.75 91.6439 124.492 89.8271 124.804C91.2914 124.75 92.7895 125.068 94.1792 125.801Z" fill="#FCA838"/>
<path d="M95.0673 134.979C95.1554 135.86 94.8571 136.634 94.1657 137.285C93.5962 137.827 92.8099 138.255 91.7931 138.574L91.9761 140.324C92.0303 140.826 91.7863 141.104 91.2507 141.158C91.0203 141.185 90.8237 141.111 90.6745 140.948C90.5593 140.812 90.4915 140.656 90.4712 140.48L90.3153 138.933C90.1322 138.96 89.956 138.987 89.7865 139.001C88.851 139.096 88.1053 139.048 87.5563 138.852C87.0614 138.675 86.797 138.411 86.7631 138.065C86.6953 137.4 87.0275 137.027 87.7664 136.952C87.9562 136.932 88.2884 136.966 88.7629 137.061C89.2374 137.149 89.5357 137.19 89.6713 137.176C89.8001 137.163 89.9492 137.136 90.1322 137.095L89.8136 134.009C88.9934 134.042 88.2816 133.941 87.6715 133.703C86.8784 133.398 86.4513 132.91 86.3835 132.231C86.3022 131.458 86.5665 130.719 87.1699 130C87.7054 129.362 88.3968 128.853 89.2442 128.494L89.1222 127.341C89.0679 126.791 89.2916 126.493 89.8068 126.445C90.2949 126.398 90.5729 126.642 90.6271 127.191L90.722 128.114C91.2507 128.094 91.827 128.148 92.4506 128.29C93.2437 128.46 93.664 128.711 93.6979 129.036C93.725 129.301 93.6505 129.538 93.481 129.742C93.3115 129.945 93.0878 130.067 92.8234 130.095C92.5997 130.115 92.2811 130.108 91.8744 130.061C91.4406 130.013 91.1219 130 90.9186 130.013L91.1423 132.163C91.2101 132.157 91.2575 132.157 91.2982 132.157C92.3354 132.13 93.1827 132.333 93.8267 132.774C94.5521 133.242 94.9656 133.988 95.0673 134.979ZM89.4408 130.454C88.7087 130.82 88.3629 131.221 88.4036 131.648C88.4443 132.014 88.851 132.211 89.6238 132.231L89.4408 130.454ZM91.5897 136.586C92.5726 136.125 93.0404 135.63 92.9861 135.107C92.9048 134.314 92.3489 133.914 91.3118 133.914L91.5897 136.586Z" fill="white"/>
<path d="M167.527 264.348C178.488 261.139 174.522 253.888 184.223 246.04C193.917 238.192 206.315 222.163 196.025 211.107C185.735 200.057 182.115 196.509 186.751 183.77C191.388 171.032 175.79 174.572 172.414 174.491C169.038 174.41 167.689 162.091 159.094 164.954C150.491 167.823 154.457 174.912 156.145 183.35C157.833 191.788 150.62 196.224 151.928 206.216C153.237 216.208 159.514 225.372 158.334 228.573C157.155 231.782 148.552 244.69 151.081 254.98C153.616 265.277 167.527 264.348 167.527 264.348Z" fill="#322FE6"/>
<path d="M142.147 238.619C132.365 231.192 139.11 226.972 134.981 224.361C130.846 221.743 109.852 202.254 123.342 196.604C136.832 190.954 128.487 199.724 140.038 199.304C151.59 198.883 148.383 211.873 149.99 214.912C151.596 217.951 164.327 213.481 163.48 226.22C162.639 238.958 156.647 250.347 156.647 250.347C156.647 250.347 148.505 256.364 146.465 251.711C144.424 247.051 142.147 238.619 142.147 238.619Z" fill="#4152F3"/>
<path d="M135.612 253.379C127.769 253.82 117.397 263.317 129.097 266.986C140.798 270.656 162.361 267.875 165.019 267.875C167.676 267.875 171.784 261.038 166.598 258.955C161.412 256.866 159.453 258.256 159.453 258.256C159.453 258.256 166.537 255.665 164.009 252.436C161.48 249.208 156.043 252.436 156.043 252.436C156.043 252.436 160.789 248.197 157.691 246.298C154.593 244.398 149.847 248.326 149.847 248.326C149.847 248.326 155.732 236.428 146.18 234.787C136.629 233.138 131.951 239.976 131.572 245.104C131.185 250.218 135.612 253.379 135.612 253.379Z" fill="#9FC3FC"/>
<path d="M154.626 261.228C154.443 261.228 154.267 261.126 154.179 260.949C154.05 260.698 154.152 260.393 154.403 260.271C154.504 260.217 164.957 254.79 171.045 242.608C176.495 231.707 174.658 224.442 169.215 202.865C168.516 200.104 167.764 197.113 166.957 193.85C166.889 193.579 167.059 193.307 167.33 193.24C167.601 193.172 167.872 193.341 167.94 193.613C168.747 196.869 169.499 199.86 170.197 202.621C175.709 224.469 177.566 231.829 171.953 243.062C165.71 255.557 154.972 261.119 154.864 261.173C154.782 261.214 154.701 261.228 154.626 261.228Z" fill="#9FC3FC"/>
<path d="M173.913 237.113C173.838 237.113 173.763 237.1 173.689 237.066C173.438 236.944 173.33 236.639 173.452 236.388C178.129 226.721 187.504 221.356 187.599 221.302C187.843 221.166 188.148 221.254 188.291 221.492C188.426 221.736 188.345 222.041 188.101 222.184C188.006 222.238 178.909 227.454 174.367 236.828C174.279 237.012 174.096 237.113 173.913 237.113Z" fill="#9FC3FC"/>
<path d="M172.72 215.577C172.584 215.577 172.455 215.523 172.354 215.421C166.727 209.594 161.277 207.898 161.223 207.878C160.958 207.796 160.803 207.512 160.884 207.247C160.965 206.982 161.243 206.826 161.514 206.908C161.745 206.976 167.27 208.705 173.079 214.715C173.276 214.919 173.269 215.238 173.066 215.434C172.977 215.529 172.849 215.577 172.72 215.577Z" fill="#9FC3FC"/>
<path d="M149.739 243.171C149.705 243.171 149.671 243.171 149.637 243.164C149.366 243.11 149.19 242.839 149.244 242.567C151.203 233.03 146.261 226.111 140.533 218.1C139.028 215.998 137.476 213.813 135.991 211.514C135.842 211.276 135.91 210.964 136.141 210.815C136.378 210.666 136.69 210.734 136.839 210.964C138.31 213.25 139.855 215.414 141.353 217.51C147.217 225.718 152.274 232.799 150.234 242.771C150.18 243.008 149.969 243.171 149.739 243.171Z" fill="#9FC3FC"/>
<path d="M149.048 232.209C148.818 232.209 148.614 232.053 148.56 231.823C148.492 231.524 146.879 224.47 150.187 218.629C150.322 218.385 150.634 218.297 150.878 218.439C151.122 218.575 151.21 218.887 151.068 219.131C147.963 224.619 149.529 231.524 149.543 231.599C149.604 231.87 149.441 232.142 149.163 232.209C149.123 232.203 149.082 232.209 149.048 232.209Z" fill="#9FC3FC"/>
<path d="M140.33 217.449C140.262 217.449 140.188 217.435 140.12 217.401C140.059 217.374 134.277 214.763 130.711 214.953C130.453 214.993 130.196 214.756 130.175 214.478C130.162 214.2 130.372 213.962 130.65 213.942C134.453 213.738 140.29 216.37 140.534 216.479C140.784 216.594 140.9 216.893 140.784 217.15C140.703 217.34 140.52 217.449 140.33 217.449Z" fill="#9FC3FC"/>
<path d="M209 3.96817V17.4328H68.0127L76.2694 0H205.034C207.217 0 209 1.78398 209 3.96817Z" fill="#322FE6"/>
<path d="M76.2688 0L68.0121 17.4328H10.3848V3.96817C10.3848 1.78398 12.1676 0 14.3504 0H76.2688Z" fill="#F5F7FC"/>
<path d="M24.0586 8.71663C24.0586 10.6024 25.5838 12.1286 27.4684 12.1286C29.3529 12.1286 30.8782 10.6024 30.8782 8.71663C30.8782 6.83091 29.3529 5.30469 27.4684 5.30469C25.5838 5.30469 24.0586 6.83769 24.0586 8.71663Z" fill="#E8505B"/>
<path d="M38.043 8.71663C38.043 10.6024 39.5682 12.1286 41.4528 12.1286C43.3373 12.1286 44.8625 10.6024 44.8625 8.71663C44.8625 6.83091 43.3373 5.30469 41.4528 5.30469C39.5682 5.31147 38.043 6.83769 38.043 8.71663Z" fill="#64E551"/>
<path d="M52.0215 8.71663C52.0215 10.6024 53.5467 12.1286 55.4313 12.1286C57.3158 12.1286 58.841 10.6024 58.841 8.71663C58.841 6.83091 57.3158 5.30469 55.4313 5.30469C53.5467 5.31147 52.0215 6.83769 52.0215 8.71663Z" fill="#FDA218"/>
<path d="M27.0617 292.478L2.75262 279.406C1.83747 278.918 1.42395 277.833 1.77646 276.863C2.19675 275.71 3.41017 273.22 5.26081 271.321C5.54552 270.602 6.84707 267.373 8.81972 262.476C12.6973 265.331 16.5748 268.248 20.5811 270.927L19.0287 273.783L16.8595 277.765C16.8595 277.765 18.4119 280.858 20.9336 284.012C22.8995 286.468 25.4483 288.957 28.309 290.049C28.6751 290.185 28.9598 290.497 29.014 290.884C29.0818 291.406 28.9598 292.111 27.9633 292.539C27.6786 292.661 27.3397 292.627 27.0617 292.478Z" fill="#FDB2D0"/>
<path d="M24.1673 292.512C24.1673 292.512 18.6967 289.574 13.0228 286.38C6.96243 282.974 0.67162 279.278 0.569937 278.565C0.359791 277.188 4.15597 272.528 4.15597 272.528C6.10829 275.981 9.07067 278.233 12.2364 280.397C14.2226 281.76 16.2902 283.083 18.2222 284.643C19.6186 285.776 21.6591 286.034 23.2996 285.294C24.9604 286.624 26.3568 288.069 28.0177 289.398C28.3634 289.676 28.7091 289.954 28.9599 290.321C29.2108 290.687 29.3531 291.148 29.2311 291.576C29.082 292.105 28.5735 292.451 28.0651 292.661C26.8246 293.163 25.3671 293.109 24.1673 292.512Z" fill="#05009F"/>
<path d="M20.9403 284.005C16.5612 282.133 12.9412 278.993 12.365 276.89C11.7414 274.624 13.3344 271.436 16.7916 272.922C17.6187 273.274 18.3711 273.546 19.0354 273.783L16.8662 277.765C16.8662 277.758 18.4186 280.851 20.9403 284.005Z" fill="#FCCDE0"/>
<path d="M24.1671 292.512C24.1671 292.512 18.6966 289.575 13.0226 286.38C12.9074 284.514 12.6905 282.133 12.2295 280.39C14.2157 281.754 16.2833 283.076 18.2153 284.636C19.6117 285.769 21.6521 286.027 23.2926 285.288C24.9535 286.617 26.3499 288.062 28.0107 289.391C28.3565 289.67 28.7022 289.948 28.953 290.314C29.2038 290.68 29.3462 291.141 29.2242 291.569C29.075 292.098 28.5666 292.444 28.0582 292.654C26.8244 293.163 25.367 293.109 24.1671 292.512Z" fill="#4152F3"/>
<path d="M57.6477 204.364C57.1325 213.487 56.2106 221.363 55.0039 224.171C54.8819 224.456 54.7192 224.809 54.5091 225.216V225.236C53.7498 226.816 52.5229 229.17 50.9434 231.985C42.707 246.813 25.8005 274.679 25.8005 274.679L13.9781 271.477L13.551 271.355L12.6291 271.09L6.72466 269.49L0 267.685C0 267.685 29.5492 224.171 31.1897 215.889C32.254 210.476 33.2166 199.711 33.5691 187.365C33.7521 180.847 33.7724 173.894 33.5284 167.063C33.5284 167.063 52.916 158.72 56.1699 165.035C58.2578 169.037 58.5493 188.6 57.6477 204.364Z" fill="#FDA218"/>
<path d="M54.5095 225.222V225.243C53.7503 226.823 52.5233 229.177 50.9438 231.992C42.7075 246.813 25.8009 274.679 25.8009 274.679L13.9785 271.477C23.0148 262.041 49.0389 234.156 54.0418 219.904C54.0418 219.911 54.3061 222 54.5095 225.222Z" fill="#FCA838"/>
<path d="M57.6478 204.364C57.1258 213.501 56.2107 221.356 55.0108 224.178C54.3736 225.663 52.9093 228.451 50.9367 231.992C49.9538 224.266 49.5674 210.544 57.6478 204.364Z" fill="#FE5900"/>
<path d="M42.5644 221.139C39.0868 227.122 19.9093 260.326 13.5507 271.355L12.6152 271.104C18.845 260.305 38.2666 226.695 41.7645 220.678C44.5777 215.828 43.7371 204.324 42.7542 191.008C42.3068 184.876 41.8458 178.541 41.6967 172.3L42.6322 172.28C42.7813 178.5 43.2423 184.822 43.6897 190.934C44.6794 204.405 45.5268 216.045 42.5644 221.139Z" fill="#FE5900"/>
<path d="M38.6668 217.611C36.945 224.707 19.8757 251.69 6.71788 269.489L0 267.685C0 267.685 29.5492 224.171 31.1897 215.889C32.254 210.476 33.2166 199.711 33.5691 187.365C36.0908 196.529 39.9819 212.198 38.6668 217.611Z" fill="#F9930D"/>
<path d="M94.2609 290.782L66.6709 291.521C65.6337 291.549 64.7389 290.816 64.5626 289.798C64.3525 288.591 64.1762 285.824 64.8338 283.253C64.7253 282.486 64.2508 274.774 63.5322 269.53C68.3181 270.08 73.3481 270.907 78.1611 271.246L78.0052 278.545L78.1001 283.076C78.1001 283.076 80.9811 284.989 84.7366 286.475C87.6583 287.628 91.1088 288.523 94.1321 288.048C94.5185 287.987 94.9185 288.109 95.1558 288.421C95.4744 288.835 95.7184 289.514 95.0676 290.382C94.8846 290.633 94.5796 290.775 94.2609 290.782Z" fill="#FDB2D0"/>
<path d="M91.7659 292.254C91.7659 292.254 85.5564 292.424 79.0487 292.471C72.1003 292.525 64.8063 292.444 64.3589 291.881C63.4912 290.789 64.4741 284.86 64.4741 284.86C67.8839 286.889 71.5716 287.363 75.3881 287.669C77.7878 287.865 80.235 287.987 82.6958 288.381C84.4718 288.666 86.3699 287.879 87.4206 286.42C89.5221 286.753 91.4541 287.309 93.5488 287.635C93.9826 287.703 94.43 287.77 94.8232 287.96C95.2231 288.15 95.5756 288.483 95.6773 288.91C95.8129 289.446 95.5418 289.995 95.2028 290.429C94.3893 291.494 93.1013 292.173 91.7659 292.254Z" fill="#05009F"/>
<path d="M84.7365 286.474C80.0049 287.024 75.3071 286.101 73.7615 284.562C72.0939 282.9 71.8973 279.345 75.6325 278.911C76.5273 278.809 77.3136 278.667 78.0051 278.545L78.1 283.076C78.1 283.076 80.9878 284.996 84.7365 286.474Z" fill="#FCCDE0"/>
<path d="M91.7665 292.254C91.7665 292.254 85.557 292.424 79.0493 292.471C78.0257 290.911 76.6563 288.951 75.3887 287.669C77.7884 287.865 80.2356 287.987 82.6963 288.381C84.4724 288.666 86.3705 287.879 87.4212 286.42C89.5227 286.753 91.4547 287.309 93.5493 287.635C93.9832 287.702 94.4306 287.77 94.8238 287.96C95.2237 288.15 95.5762 288.483 95.6779 288.91C95.8135 289.446 95.5423 289.995 95.2034 290.429C94.3899 291.494 93.1019 292.173 91.7665 292.254Z" fill="#4152F3"/>
<path d="M85.4551 219.911C84.1875 241.936 80.2896 276.239 80.2896 276.239H59.431C59.431 276.239 61.6002 223.086 57.8718 206.582C54.1231 190.052 29.5293 187.555 29.0615 164.811C29.0615 164.811 38.0368 162.682 47.4052 160.999C47.7103 160.938 48.0221 160.898 48.3475 160.836C50.6048 160.45 52.8758 160.077 55.0315 159.792C62.3662 158.747 68.3316 158.503 68.1486 160.45C67.8436 163.875 75.7952 176.831 81.1437 189.36C83.5841 195.078 85.4687 200.722 85.7534 205.314C85.95 208.529 85.8008 213.739 85.4551 219.911Z" fill="#FCA838"/>
<path d="M73.7344 252.844C73.7344 261.004 75.2325 270.521 75.5579 276.239H59.431C59.431 276.239 59.553 273.471 59.675 269.022C59.675 269.001 59.675 269.001 59.675 269.001C60.1021 253.888 60.7393 219.314 57.8718 206.582C54.1231 190.052 29.5293 187.556 29.0615 164.812C29.0615 164.812 33.3661 163.787 39.1214 162.621C41.6838 162.085 44.5309 161.515 47.3984 160.999C47.7035 160.938 48.0153 160.898 48.3407 160.837C50.5981 160.45 52.869 160.077 55.0247 159.792C55.4517 160.036 55.6822 160.179 55.6822 160.179C53.635 172.748 57.7295 180.047 66.0539 188.763C74.3716 197.479 78.0865 210.951 77.8356 217.612C77.5645 224.259 73.7344 241.95 73.7344 252.844Z" fill="#FDA218"/>
<path d="M63.4237 243.449C62.7052 249.601 61.0647 260.305 59.675 269.001C60.1021 253.888 60.7393 219.315 57.8718 206.582C54.1231 190.052 29.5293 187.556 29.0615 164.812C29.0615 164.812 33.3661 163.787 39.1214 162.621C47.5205 187.413 63.0983 187.942 63.4237 199.698C63.7762 211.995 64.7795 231.823 63.4237 243.449Z" fill="#F9930D"/>
<path d="M69.0026 180.467C68.8534 180.467 68.7043 180.392 68.6162 180.263C68.5687 180.189 63.837 173.175 61.0102 171.025C60.8069 170.869 60.7662 170.577 60.9221 170.367C61.078 170.163 61.3695 170.123 61.5797 170.279C64.5285 172.524 69.1991 179.45 69.3957 179.741C69.5381 179.958 69.4839 180.243 69.2669 180.392C69.1856 180.44 69.0975 180.467 69.0026 180.467Z" fill="#FE5900"/>
<path d="M85.4485 219.918C80.2423 212.904 77.7409 200.41 81.1236 189.353C83.564 195.085 85.4485 200.722 85.7468 205.327C85.9569 208.529 85.8078 213.732 85.4485 219.918Z" fill="#FE5900"/>
<path d="M70.5959 276.232H69.6604C70.6637 263.188 74.1209 214.654 70.6705 204.785C69.1113 200.335 65.8778 195.546 62.1291 190.004C56.5162 181.701 50.1847 172.347 47.4121 160.999C47.7172 160.945 48.029 160.884 48.334 160.83C51.0727 171.995 57.3364 181.261 62.9019 189.482C66.6845 195.085 69.9587 199.914 71.545 204.479C75.0971 214.641 71.6331 262.951 70.5959 276.232Z" fill="#FE5900"/>
<path d="M75.6587 111.231C75.6587 111.231 58.6912 125.197 46.1095 133.073C41.2355 136.105 37.0123 138.241 34.6939 138.282C33.1551 138.303 31.9484 138.16 30.9452 137.936C29.2233 137.529 28.159 136.851 27.1761 136.356C26.9117 136.213 26.6609 136.091 26.4169 135.989C25.1492 135.474 23.7121 135.393 20.9056 136.647C14.0589 139.68 10.7847 132.442 13.4285 124.343C16.0723 116.223 20.987 110.315 19.6583 102.277C18.3432 94.2593 20.3565 88.2494 22.9393 83.7385C25.5017 79.2074 22.1597 75.4766 24.4171 71.6577C26.6744 67.8455 24.7221 66.9027 34.2329 54.2656C36.7547 50.9418 39.0256 48.8322 41.0796 47.557C46.7942 43.9687 50.7124 46.8583 52.7596 47.7198C61.0163 45.6916 67.9444 51.2267 66.7784 59.6311C66.4937 61.6389 66.575 63.4636 66.8394 65.1865C67.7206 70.7419 70.6491 75.0696 70.6085 79.5194C70.5271 85.3665 73.2522 91.7427 74.9537 94.7137C76.4925 97.3388 75.1164 98.7362 75.4689 101.354C75.4893 101.7 75.5706 102.053 75.6723 102.419C76.5807 105.777 75.6587 111.231 75.6587 111.231Z" fill="#05009F"/>
<path d="M71.8083 109.345C71.8151 109.162 71.8219 108.979 71.8219 108.789C71.8965 99.9912 64.8261 91.9802 62.6162 85.4616C60.3588 78.8141 66.6835 62.7786 64.3787 57.9083C62.0738 53.0379 49.3905 60.7301 47.4721 70.213C45.5537 79.6959 49.0109 95.5889 53.7494 102.128C58.4878 108.66 71.8083 109.345 71.8083 109.345Z" fill="#040078"/>
<path d="M63.4233 163.312C62.8675 163.414 62.3184 163.597 61.7828 163.868C57.9528 165.835 55.9801 163.665 52.4822 162.824L52.4619 162.803C50.6383 162.376 48.3606 162.288 45.2084 163.36C35.9688 166.5 26.6207 170.923 25.1022 166.351C23.5838 161.799 29.8949 151.896 28.9527 146.151C28.5663 143.729 27.868 135.983 27.6647 127.327C27.3596 115.416 27.9901 101.877 31.6371 98.3292C37.9482 92.1972 51.4518 91.6003 55.7157 92.9976C70.1412 97.7323 71.7207 108.477 72.5409 117.749C72.7036 119.594 72.8053 122.199 72.907 125.231C72.968 127.816 73.029 130.726 73.09 133.765V134.131C73.2934 145.14 73.4561 157.546 74.2763 161.915C75.4559 168.318 69.0023 162.227 63.4233 163.312Z" fill="#4152F3"/>
<path d="M55.9459 97.5084C55.2477 100.934 53.6276 101.341 47.974 99.74C47.9333 99.7197 47.8926 99.7197 47.852 99.6993C42.8288 98.2613 44.8015 84.912 45.3709 81.534C45.4522 81.0388 45.5132 80.7539 45.5132 80.7539L47.5808 81.3305H47.6011L54.136 83.1145L55.2409 83.4197C55.2206 83.5825 55.1799 83.7656 55.1596 83.9352C55.0579 84.756 55.0172 85.5361 54.9969 86.2958C54.9223 91.1322 56.5425 94.6187 55.9459 97.5084Z" fill="#FDB2D0"/>
<path d="M55.1664 83.9353C55.0647 84.756 55.024 85.5361 55.0037 86.2958C51.8447 90.2708 48.5909 93.7166 48.2384 96.552C48.096 97.7594 48.0146 98.8719 47.974 99.7537C47.9333 99.7333 47.8926 99.7333 47.852 99.713C42.8288 98.275 44.8015 84.9256 45.3709 81.5476C45.9674 81.4051 46.6792 81.3441 47.5808 81.3441H47.6011C50.7194 81.3237 52.8073 82.2259 54.136 83.1281C54.5495 83.3791 54.902 83.6707 55.1664 83.9353Z" fill="#FE93BC"/>
<path d="M62.6033 64.393C62.4813 71.183 61.0238 87.422 51.269 85.9025C49.7302 85.6583 48.4015 85.1021 47.2762 84.2813C41.2294 80.0147 40.5109 68.8632 40.0635 62.7515C40.0635 62.7515 44.5104 56.6805 49.0591 51.8848C52.7265 48.032 58.5292 52.068 60.6374 53.7705C61.1526 54.1979 61.4373 54.4692 61.4373 54.4692C61.4373 54.4692 62.5219 57.1147 62.583 62.7718C62.6236 63.2874 62.6236 63.8165 62.6033 64.393Z" fill="#FDB2D0"/>
<path d="M73.0964 133.764C71.7203 134.382 70.1069 134.789 68.2223 134.809C59.6335 134.931 44.1437 126.337 43.1201 118.672L72.9133 125.231C72.9744 127.816 73.0354 130.732 73.0964 133.764Z" fill="#05009F"/>
<path d="M52.4619 162.803C50.6383 162.376 48.3606 162.288 45.2084 163.36C35.9688 166.5 26.6207 170.923 25.1022 166.351C23.5838 161.799 29.8949 151.896 28.9527 146.151C28.5663 143.729 27.868 135.983 27.6647 127.327C29.7322 125.971 31.21 125.007 31.6778 124.6C33.542 122.979 45.344 123.739 45.344 123.739C45.161 132.374 50.7942 140.059 46.693 144.801C42.5918 149.556 37.8601 154.195 37.9821 158.971C38.1042 163.767 45.5406 160.694 50.2791 161.718C51.3162 161.942 51.9873 162.328 52.4619 162.803Z" fill="#322FE6"/>
<path d="M71.8084 129.702C63.0975 132.367 53.7562 130.461 47.8924 126.113C45.9469 124.655 44.6521 123.102 43.8929 121.501C41.3915 116.129 44.9775 110.431 49.4245 107.371C50.9836 106.306 52.6444 105.567 54.1765 105.303C55.4238 105.079 56.8406 105.14 58.3184 105.364H58.3387C62.0264 105.899 66.209 107.371 69.917 107.683L70.4119 113.32L71.5575 126.792L71.8084 129.702Z" fill="#4152F3"/>
<path d="M104.449 66.2583C102.706 67.6353 100.517 69.1276 98.6527 71.0337C97.8528 71.8545 97.1139 72.7363 96.5038 73.6995C96.0089 74.4999 95.8666 75.8701 95.8462 77.783C95.8056 83.7318 96.7072 95.0258 90.1927 111.699C90.1723 111.719 90.1723 111.74 90.1723 111.74C89.0064 114.711 87.5896 117.295 85.9694 119.513C82.0783 124.865 77.0552 128.128 71.8083 129.702L71.2321 122.973L70.4119 113.313L69.917 107.677C73.3403 107.941 76.3502 107.229 78.255 103.905C81.3462 98.4717 84.5865 86.0449 89.569 75.4631C91.6162 71.0744 93.9753 67.0181 96.7411 63.8978C97.6427 62.8939 98.5646 61.9714 99.5475 61.1913C110.923 52.0882 102.049 61.6661 101.886 62.0528V62.0731C101.886 62.1342 101.988 62.2156 102.13 62.3173C102.151 62.3377 102.151 62.358 102.171 62.358C103.201 63.0431 106.564 64.6372 104.449 66.2583Z" fill="#FDB2D0"/>
<path d="M104.448 66.2582C102.706 67.6352 100.517 69.1275 98.6523 71.0336C99.2082 69.8262 100.232 68.4289 101.398 67.2622C103.486 65.1729 102.774 63.199 102.177 62.3579C103.201 63.043 106.563 64.6371 104.448 66.2582Z" fill="#FCCDE0"/>
<path d="M96.748 63.9046C97.6496 62.9007 98.5716 61.9782 99.5545 61.1981C110.929 52.0951 102.056 61.673 101.893 62.0596C101.337 61.5848 103.757 59.1293 102.612 59.4549C101.622 59.7194 99.3308 63.7961 96.748 63.9046Z" fill="#FCCDE0"/>
<path d="M90.1855 111.699C91.4532 107.148 92.7276 102.223 93.3242 98.7771C94.5715 91.6412 94.1241 85.0615 95.8459 77.7764C95.8052 83.732 96.7068 95.026 90.1855 111.699Z" fill="#FCCDE0"/>
<path d="M89.5758 75.4634C87.176 84.5054 85.3525 95.1889 82.6884 102.759C79.821 110.96 72.3777 112.927 70.4119 113.32L69.917 107.684C73.3403 107.948 76.3502 107.236 78.255 103.912C81.353 98.472 84.5933 86.0452 89.5758 75.4634Z" fill="#FE93BC"/>
<path d="M85.9695 119.513C82.0785 124.865 77.0553 128.128 71.8084 129.702L71.5576 126.792C77.523 125.849 79.0415 125.448 85.9695 119.513Z" fill="#FE93BC"/>
<path d="M71.8081 129.701C63.0972 132.367 53.7559 130.461 47.8921 126.113C45.9466 124.655 44.6518 123.101 43.8926 121.5C54.7727 125.747 58.3994 126.629 71.5572 126.791L71.8081 129.701Z" fill="#322FE6"/>
<path d="M70.4121 113.32C64.406 113.137 62.5418 107.968 58.3389 105.363C62.0266 105.899 66.2092 107.371 69.9172 107.683L70.4121 113.32Z" fill="#86A8FF"/>
<path d="M49.6558 88.4868C48.6322 94.395 42.9515 97.8815 43.9005 110.96C44.3344 116.888 45.5817 124.004 45.9681 129.925C46.0494 131.011 46.0901 132.076 46.1104 133.066C46.1511 138.642 44.9851 142.481 40.8025 141.986C36.5183 141.47 33.6508 139.483 30.946 137.923C29.6784 137.163 28.4243 136.505 27.0956 136.139C26.8719 136.078 26.6414 136.017 26.4177 135.976C24.8179 135.65 23.0554 135.772 20.9065 136.634C12.7312 139.917 23.713 112.086 23.713 112.086L33.8135 85.2037L35.4133 82.7211L41.3991 73.4756C41.7855 80.2249 50.6591 82.5583 49.6558 88.4868Z" fill="#05009F"/>
<path d="M63.4238 163.312C63.6679 163.048 63.9797 162.837 64.3661 162.675C69.0978 160.748 67.8301 161.711 68.9961 153.51C70.1214 145.472 73.0973 140.263 73.0973 134.131C73.3007 145.14 73.4634 157.546 74.2836 161.915C75.4564 168.318 69.0029 162.227 63.4238 163.312Z" fill="#86A8FF"/>
<path d="M62.6034 64.3926C62.4814 71.1826 61.024 87.4216 51.2691 85.9021C49.7303 85.6579 48.4017 85.1017 47.2764 84.2809C49.9405 84.7558 54.6721 85.0407 57.6074 82.0425C61.851 77.6741 62.4814 67.2551 62.5899 62.7646C62.6238 63.287 62.6238 63.816 62.6034 64.3926Z" fill="#FCCDE0"/>
<path d="M75.4557 101.368C74.8185 100.425 74.3711 98.9873 74.4321 97.5967C74.5744 94.0898 68.3853 87.7747 69.2462 82.0564C70.0665 76.5213 66.9075 73.1569 66.8262 65.8785V65.2002C67.7074 70.7556 70.6359 75.0833 70.5952 79.5331C70.5139 85.3802 73.239 91.7564 74.9405 94.7274C76.4793 97.3457 75.1032 98.7431 75.4557 101.368Z" fill="#322FE6"/>
<path d="M49.655 88.4868C48.6314 94.395 42.9507 97.8815 43.8998 110.96C44.3336 116.888 45.5809 124.004 45.9673 129.925C43.71 126.954 41.3577 123.468 40.9645 117.376C40.2256 105.831 43.7506 97.3863 46.9299 92.0344C50.1092 86.7028 38.6326 83.2773 41.3983 73.4756C41.7847 80.2249 50.6583 82.5583 49.655 88.4868Z" fill="#322FE6"/>
<path d="M39.3442 71.3661C37.602 72.8855 36.3344 77.376 35.4124 82.7279C34.2871 89.3687 33.7109 97.3254 33.4872 102.637C33.0602 112.214 26.8914 111 26.2135 124.601C25.9491 129.932 26.0508 133.52 27.0947 136.146C27.1151 136.227 27.1354 136.288 27.1761 136.349C26.9117 136.207 26.6609 136.085 26.4169 135.983C24.817 135.657 23.0545 135.779 20.9056 136.641C14.0589 139.673 10.7847 132.435 13.4285 124.336C16.0723 116.217 20.987 110.308 19.6583 102.27C18.3432 94.2526 20.3565 88.2427 22.9393 83.7318C25.5017 79.2007 22.1597 75.4699 24.4171 71.651C26.6744 67.8388 24.7221 66.896 34.2329 54.2589C36.7547 50.9351 39.0256 48.8255 41.0796 47.5503C40.8356 49.0697 43.7844 51.2811 39.6628 57.1282C33.833 65.3765 43.2421 67.9609 39.3442 71.3661Z" fill="#040078"/>
<path d="M43.7311 73.7875C43.7311 73.7875 42.9719 73.7672 41.8872 73.584C39.7993 73.2177 36.5387 72.2274 35.3931 69.6701C34.4711 67.6216 35.1083 65.9597 36.5997 65.0372C36.5997 65.0372 36.62 65.0168 36.6404 64.9965C37.969 64.1961 39.9417 63.9519 42.0499 64.5217L43.7311 73.7875Z" fill="#FDB2D0"/>
<path d="M62.5832 62.7716C56.4957 62.1136 53.0724 56.9651 52.625 53.1733C52.625 53.1733 57.2143 53.2547 60.6376 53.7703C61.1528 54.1976 61.4376 54.4689 61.4376 54.4689C61.4376 54.4689 62.5222 57.1144 62.5832 62.7716Z" fill="#FE93BC"/>
<path d="M64.9414 60.784C64.9414 60.784 64.3856 60.7637 63.5043 60.6619C60.5352 60.316 53.8308 58.8576 52.6242 53.1801C52.2785 60.4788 45.7165 65.4034 38.8291 65.8714C38.8291 65.8714 38.6054 58.0368 44.7946 51.9455C49.8991 46.9395 57.871 47.6993 61.8028 51.1655C62.6434 51.8845 63.3009 52.7459 63.7077 53.7092C65.9854 59.1425 64.9414 60.784 64.9414 60.784Z" fill="#05009F"/>
<path d="M52.6241 53.1733C52.2784 60.4721 45.7165 65.3966 38.8291 65.8647C44.2861 64.2096 52.4208 54.8556 52.6241 53.1733Z" fill="#322FE6"/>
<path d="M64.9414 60.7841C64.9414 60.7841 64.3855 60.7637 63.5042 60.662C63.5246 57.8945 63.2602 53.9331 61.8027 51.1655C62.6433 51.8845 63.3009 52.746 63.7076 53.7092C65.9853 59.1426 64.9414 60.7841 64.9414 60.7841Z" fill="#322FE6"/>
<path d="M41.8872 73.5771C39.7993 73.2108 36.5387 72.2205 35.3931 69.6632C34.4711 67.6147 35.1083 65.9528 36.5997 65.0303C34.4508 68.3744 36.4573 70.7282 39.6502 71.8813C41.0263 72.3697 41.7246 72.987 41.8872 73.5771Z" fill="#FCCDE0"/>
</g>
<defs>
<clipPath id="clip0_601_1667">
<rect width="209" height="293" fill="white"/>
</clipPath>
</defs>
</svg>
