<svg width="264" height="257" viewBox="0 0 264 257" fill="none" xmlns="http://www.w3.org/2000/svg">
<g clip-path="url(#clip0_601_1502)">
<path d="M217.42 228.234L140.25 227.876C130.971 227.833 123.48 220.248 123.517 210.937L124.334 16.7977C124.377 7.48011 131.942 -0.0429805 141.227 0.000184827L218.397 0.35784C227.676 0.401005 235.167 7.98576 235.13 17.2971L234.313 211.436C234.27 220.754 226.712 228.277 217.42 228.234Z" fill="#040078"/>
<path d="M217.881 7.15955L202.918 7.09172C200.915 7.08555 161.23 6.90056 159.22 6.88822L153.96 6.86356L140.865 6.80189C134.363 6.77106 129.066 12.0372 129.035 18.5675L128.236 208.057C128.212 214.581 133.454 219.89 139.955 219.921L216.972 220.279C223.473 220.31 228.77 215.044 228.801 208.513L229.6 19.0238C229.631 12.4997 224.383 7.19038 217.881 7.15955Z" fill="white"/>
<path d="M211.417 69.9097H150.697C149.707 69.9097 148.902 69.1019 148.902 68.1091V49.7576C148.902 48.7648 149.707 47.957 150.697 47.957H211.417C212.406 47.957 213.211 48.7648 213.211 49.7576V68.1091C213.205 69.1019 212.406 69.9097 211.417 69.9097Z" fill="#FC8000"/>
<path d="M211.417 68.3926H150.697C149.707 68.3926 148.902 67.5848 148.902 66.592V48.2406C148.902 47.2478 149.707 46.4399 150.697 46.4399H211.417C212.406 46.4399 213.211 47.2478 213.211 48.2406V66.592C213.205 67.5848 212.406 68.3926 211.417 68.3926Z" fill="#FDA218"/>
<path d="M161.623 57.9526C161.561 57.9526 161.401 57.9402 161.156 57.9156C161.131 58.4397 161.125 59.303 161.125 60.4993C161.125 60.6967 161.057 60.8693 160.916 61.0111C160.781 61.153 160.603 61.227 160.394 61.227C160.185 61.227 160.007 61.153 159.865 61.0111C159.724 60.8693 159.656 60.6967 159.656 60.4993V58.933C159.656 58.3534 159.693 57.4963 159.767 56.3555C159.841 55.2023 159.877 54.339 159.877 53.7655C159.877 52.7912 160.154 52.3288 160.695 52.3658C160.824 52.3349 160.996 52.3041 161.217 52.2918C161.438 52.2733 161.715 52.2671 162.034 52.2671C162.766 52.2671 163.454 52.5076 164.093 52.9824C164.806 53.5127 165.162 54.1602 165.162 54.9248C165.162 55.8806 164.781 56.6453 164.025 57.2126C163.349 57.7059 162.551 57.9526 161.623 57.9526ZM161.899 53.7162C161.776 53.7162 161.672 53.7162 161.58 53.7162C161.488 53.7162 161.414 53.7224 161.346 53.7285C161.346 53.9074 161.346 54.1664 161.34 54.5179C161.334 54.931 161.297 55.5785 161.236 56.4603C161.426 56.4911 161.555 56.5035 161.617 56.5035C162.2 56.5035 162.68 56.3678 163.067 56.0903C163.479 55.7943 163.681 55.4058 163.681 54.9187C163.681 54.598 163.491 54.3205 163.104 54.0739C162.741 53.8334 162.336 53.7162 161.899 53.7162Z" fill="white"/>
<path d="M170.81 61.3932C170.637 61.3932 170.367 61.2267 169.992 60.8937C169.648 61.0602 169.347 61.1836 169.089 61.2699C168.825 61.3562 168.603 61.3932 168.425 61.3932C167.528 61.3932 166.852 61.1527 166.404 60.6717C165.955 60.1908 165.728 59.4693 165.728 58.5073C165.728 57.607 166.059 56.8362 166.723 56.1949C167.387 55.5536 168.179 55.2329 169.107 55.2329C169.464 55.2329 169.869 55.3316 170.336 55.5351C170.902 55.7756 171.178 56.0531 171.178 56.3737C171.178 56.5094 171.135 56.6265 171.049 56.7252C171.012 56.8732 170.982 57.0582 170.963 57.2864C170.945 57.5083 170.932 57.7735 170.932 58.0757C170.932 58.7848 170.982 59.2905 171.086 59.6049C171.098 59.6358 171.184 59.8331 171.344 60.1846C171.492 60.5053 171.565 60.6841 171.565 60.7273C171.565 60.9246 171.492 61.0849 171.338 61.2144C171.184 61.3254 171.012 61.3932 170.81 61.3932ZM169.427 57.607C169.427 57.4898 169.433 57.348 169.451 57.1939C169.47 57.0397 169.495 56.867 169.525 56.6759C169.451 56.6389 169.384 56.6142 169.329 56.5957C169.273 56.5772 169.224 56.571 169.181 56.571C168.671 56.571 168.229 56.7684 167.848 57.1692C167.467 57.57 167.276 58.0263 167.276 58.5505C167.276 59.05 167.368 59.4261 167.546 59.6789C167.725 59.9318 167.995 60.0551 168.352 60.0551C168.585 60.0551 168.8 60.0181 169.009 59.9379C169.218 59.8639 169.408 59.7468 169.593 59.5988C169.482 58.7108 169.427 58.0448 169.427 57.607Z" fill="white"/>
<path d="M177.914 56.3432C177.508 57.1942 176.863 58.5262 175.984 60.3453C175.505 61.3196 175.142 62.1336 174.891 62.7749C174.811 63.0092 174.688 63.3483 174.522 63.8108C174.387 64.1623 174.147 64.335 173.803 64.335C173.588 64.335 173.403 64.2671 173.244 64.1253C173.084 63.9897 173.004 63.8108 173.004 63.6012C173.004 63.2558 173.397 62.2199 174.19 60.5056C173.778 59.6916 173.127 58.4953 172.236 56.9167C172.144 56.7749 172.058 56.6331 171.959 56.4851C171.861 56.3124 171.806 56.1582 171.806 56.0103C171.806 55.8068 171.886 55.6279 172.045 55.4799C172.205 55.3258 172.389 55.2518 172.598 55.2518C172.844 55.2518 173.035 55.3443 173.176 55.5293C173.705 56.2384 174.325 57.299 175.026 58.7235C175.425 57.8355 175.665 57.299 175.751 57.1202C176.015 56.5652 176.273 56.0719 176.531 55.6526C176.691 55.3813 176.912 55.2456 177.189 55.2456C177.398 55.2456 177.582 55.3196 177.748 55.4614C177.914 55.6033 177.994 55.7759 177.994 55.9856C178.006 56.0904 177.975 56.2076 177.914 56.3432Z" fill="white"/>
<path d="M180.131 56.1151C180.697 55.4614 181.225 55.1346 181.729 55.1346C182.3 55.1346 182.724 55.3566 182.995 55.7944C183.222 55.5909 183.474 55.4429 183.751 55.3381C184.027 55.2394 184.322 55.1839 184.648 55.1839C185.379 55.1839 185.877 55.5478 186.135 56.2754C186.184 56.4234 186.264 56.9352 186.375 57.7985C186.479 58.4028 186.614 59.4141 186.78 60.8324C186.792 61.0483 186.725 61.2209 186.559 61.3627C186.399 61.4984 186.209 61.5724 185.994 61.5724C185.563 61.5724 185.312 61.3566 185.238 60.9311C185.17 60.5426 185.103 60 185.029 59.297C184.955 58.5262 184.894 57.9774 184.844 57.6567C184.746 56.9845 184.617 56.6516 184.457 56.6516C184.371 56.6516 184.175 56.7379 183.867 56.9106C183.56 57.0832 183.339 57.2312 183.198 57.3545C183.198 57.78 183.247 58.3967 183.351 59.1983C183.456 60.0185 183.505 60.6289 183.505 61.0421C183.505 61.2579 183.431 61.4306 183.284 61.5724C183.136 61.7142 182.952 61.7882 182.731 61.7882C182.509 61.7882 182.325 61.7142 182.177 61.5724C182.03 61.4306 181.962 61.2517 181.962 61.0421C181.962 60.6166 181.913 59.9876 181.827 59.1613C181.735 58.335 181.692 57.706 181.692 57.2805C181.692 57.04 181.674 56.8489 181.631 56.7071C181.2 56.9599 180.764 57.373 180.328 57.9589C180.309 57.9835 180.279 58.0267 180.23 58.076C180.217 58.8345 180.205 59.4265 180.205 59.8581C180.205 59.963 180.199 60.1048 180.193 60.2836C180.186 60.4624 180.18 60.5919 180.18 60.6783C180.18 60.8818 180.1 61.0421 179.935 61.1531C179.787 61.2641 179.603 61.3134 179.381 61.3134C179.062 61.3134 178.853 61.1778 178.736 60.9003C178.656 60.7153 178.619 60.4131 178.619 60.0061V57.9157C178.619 57.7307 178.613 57.4532 178.595 57.0955C178.583 56.7317 178.57 56.4604 178.57 56.2754C178.57 55.9424 178.632 55.6403 178.749 55.3689C178.896 55.0298 179.099 54.8633 179.363 54.8633C179.572 54.8633 179.756 54.9434 179.922 55.1099C180.088 55.2703 180.168 55.4491 180.168 55.6464C180.18 55.5539 180.162 55.7143 180.131 56.1151Z" fill="white"/>
<path d="M190.4 61.3443C189.509 61.3443 188.778 61.1285 188.213 60.703C187.586 60.2282 187.272 59.5684 187.272 58.7112C187.272 57.7616 187.518 56.9661 188.016 56.3063C188.569 55.5787 189.313 55.2148 190.247 55.2148C190.898 55.2148 191.433 55.3197 191.863 55.5293C192.428 55.8068 192.705 56.2385 192.705 56.8181C192.705 57.2313 192.477 57.5951 192.016 57.9096C191.808 58.0576 191.39 58.2672 190.757 58.5509L188.87 59.3895C189.048 59.5869 189.263 59.7287 189.522 59.8274C189.774 59.926 190.068 59.9754 190.394 59.9754C190.892 59.9754 191.316 59.8705 191.666 59.667C191.973 59.482 192.225 59.3895 192.41 59.3895C192.797 59.3895 192.994 59.5807 192.994 59.9569C192.994 60.3823 192.68 60.7338 192.059 60.999C191.543 61.2333 190.984 61.3443 190.4 61.3443ZM190.253 56.5776C189.909 56.5776 189.608 56.6948 189.362 56.923C189.116 57.1573 188.919 57.5026 188.766 57.9651C189.19 57.7801 189.608 57.6013 190.025 57.4224C190.529 57.1943 190.929 56.9846 191.23 56.7873C190.978 56.6455 190.652 56.5776 190.253 56.5776Z" fill="white"/>
<path d="M198.395 61.4862C197.934 61.4862 197.682 61.2581 197.627 60.8079C197.571 60.4256 197.522 60.0371 197.467 59.6486C197.411 59.2355 197.381 58.847 197.381 58.4893C197.381 58.3907 197.387 58.2242 197.399 57.9898C197.411 57.7555 197.418 57.589 197.418 57.4904C197.418 57.4657 197.424 57.3979 197.43 57.293C197.436 57.1882 197.442 57.1019 197.442 57.034C197.442 56.7257 197.368 56.5654 197.215 56.5654C196.895 56.5654 196.582 56.7689 196.275 57.182C195.967 57.5952 195.728 58.1193 195.556 58.7483C195.55 58.8778 195.531 59.0443 195.506 59.254C195.482 59.4266 195.476 59.5931 195.476 59.7596C195.476 59.8644 195.463 60.0309 195.439 60.2468C195.414 60.4626 195.402 60.6229 195.402 60.7339C195.402 60.9497 195.328 61.1347 195.181 61.2766C195.033 61.4184 194.849 61.4924 194.628 61.4924C194.4 61.4924 194.216 61.4184 194.075 61.2766C193.927 61.1347 193.853 60.9559 193.853 60.7339C193.853 60.6291 193.841 60.4688 193.823 60.2529C193.798 60.0371 193.792 59.8768 193.792 59.7719C193.792 59.4081 193.817 58.8963 193.872 58.2488C193.921 57.5952 193.952 57.0895 193.952 56.7257C193.952 56.6085 193.946 56.4421 193.933 56.2139C193.921 55.9857 193.915 55.8192 193.915 55.7082C193.915 55.4924 193.989 55.3198 194.142 55.1779C194.296 55.0361 194.48 54.9683 194.701 54.9683C195.193 54.9683 195.451 55.2643 195.482 55.8501L195.488 55.9117C196.035 55.3629 196.606 55.0854 197.209 55.0854C197.915 55.0854 198.401 55.3814 198.671 55.9734C198.849 56.368 198.942 56.9662 198.942 57.7555V58.1563C198.935 58.329 198.935 58.4523 198.935 58.5202C198.935 58.81 198.978 59.1861 199.058 59.6486C199.138 60.1111 199.181 60.4811 199.181 60.7709C199.181 60.9806 199.108 61.1532 198.96 61.2951C198.8 61.4122 198.616 61.4862 198.395 61.4862Z" fill="white"/>
<path d="M203.932 56.5652C203.852 56.5652 203.76 56.5652 203.655 56.5591C203.551 56.5529 203.458 56.5529 203.379 56.5529C203.225 56.5529 203.047 56.5652 202.85 56.5961C202.918 58.1069 202.948 59.0935 202.948 59.5621C202.948 59.6115 202.948 59.704 202.955 59.8335C202.961 59.9691 202.961 60.074 202.961 60.1541C202.961 61.0174 202.69 61.4429 202.15 61.4429C201.947 61.4429 201.769 61.3813 201.621 61.2518C201.455 61.1161 201.375 60.9496 201.375 60.7461C201.375 60.6105 201.381 60.407 201.394 60.1418C201.406 59.8705 201.412 59.6731 201.412 59.5375C201.412 59.0873 201.381 58.113 201.314 56.6269C201.08 56.6146 200.73 56.5837 200.263 56.5344C199.796 56.4851 199.562 56.2446 199.562 55.8068C199.562 55.5971 199.636 55.4183 199.778 55.2765C199.919 55.1285 200.103 55.0545 200.324 55.0545C200.466 55.0545 200.779 55.0791 201.277 55.1223C201.271 55.0051 201.265 54.8016 201.252 54.5241C201.234 54.2836 201.228 54.0987 201.228 53.9692C201.228 53.7595 201.302 53.5868 201.455 53.445C201.609 53.3093 201.793 53.2354 202.008 53.2354C202.561 53.2354 202.838 53.704 202.838 54.6351L202.826 55.0976C203.059 55.0668 203.243 55.0483 203.391 55.0483C203.821 55.0483 204.116 55.0791 204.27 55.1346C204.571 55.2395 204.718 55.4676 204.718 55.8191C204.718 56.0349 204.644 56.2076 204.497 56.3494C204.343 56.4974 204.159 56.5652 203.932 56.5652Z" fill="white"/>
<path d="M216.898 94.9022H140.877C139.777 94.9022 138.88 94.0019 138.88 92.8981V87.4963C138.88 86.3925 139.777 85.4922 140.877 85.4922H216.904C218.004 85.4922 218.902 86.3925 218.902 87.4963V92.8981C218.895 94.0019 218.004 94.9022 216.898 94.9022Z" fill="#F5F7FC"/>
<path d="M216.898 180.77H140.877C139.777 180.77 138.88 179.876 138.88 178.766V173.364C138.88 172.261 139.777 171.36 140.877 171.36H216.904C218.004 171.36 218.902 172.261 218.902 173.364V178.766C218.895 179.87 218.004 180.77 216.898 180.77Z" fill="#F5F7FC"/>
<path d="M216.898 157.874H140.877C139.777 157.874 138.88 156.974 138.88 155.87V106.711C138.88 105.607 139.777 104.707 140.877 104.707H216.904C218.004 104.707 218.902 105.607 218.902 106.711V155.87C218.895 156.98 218.004 157.874 216.898 157.874Z" fill="#F5F7FC"/>
<path d="M173.181 115.726L213.954 101.032L254.328 115.523C259.483 117.965 264 119.426 264 124.249V148.236C264 164.898 259.649 181.406 250.702 195.983C243.168 208.248 231.511 220.877 213.555 228.906C197.049 223.529 184.734 209.185 177.2 196.92C168.253 182.343 163.902 165.835 163.902 149.173V127.603C163.902 120.734 167.528 117.379 173.181 115.726Z" fill="#4152F3"/>
<path d="M213.555 214.988C227.756 208.636 236.986 198.431 242.941 188.731C250.02 177.2 253.461 164.139 253.461 150.955V134.127C253.461 130.316 251.169 126.746 246.622 124.612L213.942 112.353L213.948 101.038L254.322 115.529C258.562 117.385 263.994 119.432 263.994 124.254V148.242C263.994 164.904 259.643 181.411 250.696 195.989C243.162 208.254 231.505 220.883 213.549 228.912V214.988H213.555Z" fill="#322FE6"/>
<path d="M213.555 228.906C210.698 227.944 208.067 226.84 205.548 225.459C198.782 221.759 193.006 216.678 188.6 212.077C183.671 206.935 179.997 201.372 176.807 196.18C167.86 181.603 163.509 165.095 163.903 147.977L163.878 128.17C163.903 118.31 168.942 117.582 173.182 115.72L213.954 101.025L213.948 112.341L180.888 124.803C176.334 126.937 174.048 130.507 174.048 134.318V151.146C174.048 164.33 177.489 177.391 184.569 188.922C190.529 198.628 199.36 208.63 213.561 214.982V228.906H213.555Z" fill="#86A8FF"/>
<path d="M203.133 149.876L203.09 146.639C203.09 140.78 207.84 136.014 213.678 136.014C219.516 136.014 224.266 140.78 224.266 146.62L224.309 149.919C227.166 150.345 229.36 152.805 229.36 155.79V174.887C229.36 178.168 226.705 180.832 223.436 180.832H203.68C200.411 180.832 197.756 178.168 197.756 174.887V155.79C197.75 152.688 200.116 150.147 203.133 149.876ZM210.851 170.133H216.019L215.214 166.39C216.111 165.835 216.707 164.842 216.707 163.707C216.707 161.962 215.294 160.544 213.555 160.544C211.816 160.544 210.403 161.962 210.403 163.707C210.403 164.799 210.956 165.767 211.797 166.334C211.429 167.783 210.851 170.133 210.851 170.133ZM205.413 149.845H222.023L221.98 146.632C221.98 142.038 218.256 138.301 213.678 138.301C209.1 138.301 205.376 142.038 205.376 146.62L205.413 149.845Z" fill="#F5F7FC"/>
<path d="M246.856 149.642C246.948 149.654 247.23 148.39 247.464 146.318C247.71 144.246 247.888 141.36 247.796 138.172C247.753 136.581 247.648 135.064 247.501 133.689C247.372 132.32 247.12 131.031 246.591 130.069C246.075 129.101 245.35 128.528 244.803 128.269C244.25 128.01 243.906 128.022 243.9 128.059C243.832 128.152 245.276 128.435 246.137 130.291C246.561 131.192 246.751 132.388 246.843 133.745C246.948 135.107 247.034 136.612 247.077 138.184C247.169 141.342 247.071 144.197 246.954 146.269C246.856 148.347 246.751 149.623 246.856 149.642Z" fill="white"/>
<path d="M246.26 160.082C246.456 160.088 246.634 159.101 246.659 157.88C246.684 156.659 246.542 155.667 246.346 155.667C246.149 155.66 245.971 156.647 245.946 157.868C245.922 159.089 246.063 160.082 246.26 160.082Z" fill="white"/>
<path d="M184.798 223.566C199.301 219.051 207.41 203.594 202.911 189.041C198.412 174.489 183.008 166.351 168.506 170.866C154.004 175.381 145.894 190.838 150.393 205.391C154.892 219.943 170.296 228.081 184.798 223.566Z" fill="#FCA838"/>
<path d="M183.566 219.579C195.873 215.747 202.756 202.629 198.937 190.278C195.119 177.928 182.046 171.021 169.738 174.853C157.431 178.684 150.548 191.803 154.367 204.153C158.185 216.504 171.258 223.41 183.566 219.579Z" fill="#FDA218"/>
<path d="M188.581 217.368C184.292 217.738 179.842 216.918 175.75 214.754C164.344 208.729 159.969 194.571 165.973 183.126C168.056 179.155 171.123 176.028 174.711 173.895C167.048 174.548 159.877 178.988 156.024 186.32C150.02 197.765 154.396 211.923 165.801 217.948C173.243 221.882 181.833 221.376 188.581 217.368Z" fill="#FC8000"/>
<path d="M183.72 179.136C193.786 184.452 197.651 196.951 192.348 207.052C189.251 212.953 183.708 216.733 177.624 217.788C184.746 217.516 191.53 213.539 195.088 206.762C200.386 196.661 196.526 184.162 186.461 178.846C182.276 176.639 177.686 176.016 173.359 176.768C176.85 176.633 180.414 177.385 183.72 179.136Z" fill="#FCA838"/>
<path d="M185.828 201.027C186.043 203.13 185.33 204.967 183.683 206.527C182.338 207.816 180.457 208.84 178.048 209.604L178.478 213.779C178.601 214.969 178.024 215.629 176.745 215.765C176.192 215.82 175.738 215.654 175.381 215.265C175.105 214.945 174.939 214.575 174.896 214.149L174.521 210.462C174.091 210.529 173.673 210.585 173.261 210.628C171.031 210.856 169.267 210.739 167.964 210.264C166.79 209.845 166.157 209.222 166.071 208.383C165.905 206.792 166.704 205.905 168.456 205.726C168.91 205.676 169.697 205.763 170.822 205.979C171.94 206.194 172.665 206.287 172.985 206.25C173.286 206.219 173.648 206.151 174.072 206.053L173.317 198.69C171.362 198.77 169.666 198.529 168.234 197.968C166.354 197.241 165.334 196.069 165.168 194.453C164.978 192.616 165.604 190.84 167.042 189.132C168.321 187.602 169.961 186.406 171.971 185.537L171.688 182.78C171.553 181.479 172.1 180.764 173.317 180.64C174.484 180.517 175.129 181.109 175.265 182.416L175.492 184.618C176.752 184.569 178.122 184.704 179.603 185.037C181.496 185.45 182.479 186.042 182.559 186.825C182.626 187.461 182.454 188.022 182.043 188.515C181.631 189.008 181.115 189.286 180.482 189.354C179.947 189.409 179.197 189.378 178.22 189.267C177.188 189.163 176.432 189.119 175.953 189.144L176.481 194.268C176.635 194.25 176.758 194.244 176.85 194.25C179.32 194.188 181.324 194.675 182.866 195.718C184.599 196.883 185.588 198.653 185.828 201.027ZM172.45 190.229C170.699 191.105 169.881 192.061 169.986 193.084C170.078 193.966 171.043 194.429 172.886 194.472L172.45 190.229ZM177.563 204.85C179.904 203.752 181.01 202.575 180.881 201.317C180.685 199.424 179.363 198.474 176.905 198.474L177.563 204.85Z" fill="white"/>
<path d="M231.904 202.42V211.22C231.904 212.059 231.48 212.866 230.675 213.625C230.447 213.841 230.183 214.057 229.894 214.272C229.335 214.679 228.659 215.074 227.885 215.45C227.633 215.567 227.375 215.691 227.104 215.802C226.164 216.209 225.095 216.585 223.927 216.924C223.669 216.998 223.411 217.078 223.153 217.152C221.863 217.497 220.468 217.812 218.968 218.083C218.716 218.126 218.452 218.176 218.188 218.219C216.959 218.416 215.675 218.601 214.341 218.749C214.083 218.774 213.825 218.805 213.567 218.823C212.676 218.916 211.766 218.984 210.832 219.045C210.574 219.07 210.316 219.082 210.052 219.101C208.89 219.162 207.698 219.199 206.481 219.224C206.223 219.224 205.965 219.23 205.701 219.23H205.142C204.011 219.23 202.893 219.206 201.799 219.169C201.535 219.162 201.277 219.144 201.018 219.138C199.9 219.082 198.8 219.008 197.731 218.916C197.467 218.891 197.202 218.866 196.944 218.848C196.201 218.78 195.482 218.694 194.769 218.607C194.505 218.57 194.247 218.54 193.988 218.503C193.085 218.379 192.206 218.244 191.365 218.089C191.1 218.046 190.842 217.997 190.59 217.941C189.853 217.806 189.152 217.652 188.47 217.479C188.206 217.417 187.948 217.356 187.696 217.288C186.848 217.072 186.049 216.844 185.293 216.591C185.023 216.505 184.765 216.412 184.513 216.32C183.72 216.036 182.995 215.734 182.343 215.413C182.067 215.284 181.809 215.142 181.557 215.006C180.906 214.649 180.346 214.266 179.892 213.878C179.584 213.619 179.32 213.347 179.105 213.082C178.632 212.484 178.38 211.861 178.38 211.22C178.38 208.605 178.38 202.42 178.38 202.42H231.904Z" fill="#FDA218"/>
<path d="M205.149 209.518C219.926 209.518 231.905 206.34 231.905 202.42C231.905 198.5 219.926 195.323 205.149 195.323C190.373 195.323 178.394 198.5 178.394 202.42C178.394 206.34 190.373 209.518 205.149 209.518Z" fill="#FCA838"/>
<path d="M227.111 201.477C227.111 204.172 217.279 206.361 205.148 206.361C193.018 206.361 183.186 204.172 183.186 201.477C183.186 198.782 193.018 196.593 205.148 196.593C217.279 196.593 227.111 198.782 227.111 201.477Z" fill="#FDA218"/>
<path d="M183.85 202.68C186.258 200.564 194.874 198.998 205.142 198.998C215.411 198.998 224.032 200.564 226.435 202.68C226.871 202.297 227.105 201.896 227.105 201.477C227.105 198.782 217.273 196.593 205.142 196.593C193.012 196.593 183.18 198.782 183.18 201.477C183.18 201.89 183.413 202.297 183.85 202.68Z" fill="#FC8000"/>
<path d="M179.892 206.361V213.872C179.585 213.613 179.321 213.341 179.105 213.076V206.361H179.892Z" fill="#FC8000"/>
<path d="M182.35 208.568V215.413C182.074 215.284 181.815 215.142 181.563 215.006V208.568H182.35Z" fill="#FC8000"/>
<path d="M185.3 209.918V216.591C185.03 216.504 184.771 216.412 184.52 216.319V209.918H185.3Z" fill="#FC8000"/>
<path d="M188.476 210.825V217.479C188.212 217.417 187.954 217.356 187.702 217.288V210.825H188.476Z" fill="#FC8000"/>
<path d="M191.377 211.695V218.089C191.113 218.046 190.854 217.997 190.603 217.941V211.695H191.377Z" fill="#FC8000"/>
<path d="M194.776 212.268V218.607C194.511 218.57 194.253 218.539 193.995 218.502V212.268H194.776Z" fill="#FC8000"/>
<path d="M197.731 212.268V218.916C197.467 218.891 197.202 218.866 196.944 218.848V212.268H197.731Z" fill="#FC8000"/>
<path d="M201.799 212.268V219.168C201.535 219.162 201.277 219.144 201.019 219.138V212.268H201.799Z" fill="#FC8000"/>
<path d="M206.482 211.695V219.224C206.224 219.224 205.965 219.23 205.701 219.23V211.695H206.482Z" fill="#FC8000"/>
<path d="M210.832 210.825V219.045C210.574 219.07 210.316 219.082 210.052 219.101V210.825H210.832Z" fill="#FC8000"/>
<path d="M214.342 210.825V218.749C214.084 218.774 213.825 218.805 213.567 218.823V210.825H214.342Z" fill="#FC8000"/>
<path d="M218.975 209.919V218.077C218.723 218.12 218.459 218.169 218.194 218.213V209.913H218.975V209.919Z" fill="#FC8000"/>
<path d="M223.934 209.049V216.918C223.676 216.992 223.418 217.072 223.16 217.146V209.049H223.934Z" fill="#FC8000"/>
<path d="M227.892 206.934V215.438C227.64 215.555 227.382 215.678 227.111 215.789V206.928H227.892V206.934Z" fill="#FC8000"/>
<path d="M230.675 205.491V213.619C230.448 213.834 230.183 214.05 229.895 214.266V205.491H230.675Z" fill="#FC8000"/>
<path d="M230.675 209.734C230.447 209.95 230.183 210.166 229.894 210.381C229.335 210.788 228.659 211.183 227.885 211.559C227.633 211.676 227.375 211.8 227.104 211.911C226.164 212.318 225.095 212.694 223.927 213.033C223.669 213.107 223.411 213.187 223.153 213.261C221.863 213.606 220.468 213.921 218.968 214.192C218.716 214.242 218.452 214.285 218.188 214.328C216.959 214.525 215.675 214.71 214.341 214.858C214.083 214.883 213.825 214.914 213.567 214.938C212.676 215.031 211.766 215.099 210.832 215.16C210.574 215.185 210.316 215.197 210.052 215.216C208.89 215.278 207.698 215.314 206.481 215.339C206.223 215.339 205.965 215.345 205.701 215.345H205.142C204.011 215.345 202.893 215.321 201.799 215.284C201.535 215.278 201.277 215.259 201.018 215.253C199.9 215.197 198.8 215.123 197.731 215.031C197.467 215.006 197.202 214.988 196.944 214.963C196.201 214.895 195.482 214.809 194.769 214.723C194.505 214.686 194.247 214.655 193.988 214.612C193.085 214.488 192.206 214.353 191.365 214.198C191.1 214.155 190.842 214.106 190.59 214.05C189.853 213.915 189.152 213.761 188.47 213.588C188.206 213.526 187.948 213.465 187.696 213.397C186.848 213.181 186.049 212.953 185.293 212.7C185.023 212.614 184.765 212.521 184.513 212.429C183.72 212.145 182.995 211.843 182.343 211.522C182.067 211.393 181.809 211.257 181.557 211.115C180.906 210.751 180.346 210.375 179.892 209.987C179.584 209.728 179.32 209.456 179.105 209.185C178.632 208.587 178.38 207.964 178.38 207.323C178.38 208.778 178.38 210.24 178.38 211.208C178.38 211.843 178.632 212.466 179.105 213.07C179.32 213.341 179.584 213.606 179.892 213.865C180.352 214.26 180.906 214.636 181.557 214.994C181.809 215.13 182.067 215.271 182.343 215.401C182.995 215.721 183.72 216.024 184.513 216.307C184.765 216.4 185.023 216.492 185.293 216.579C186.049 216.831 186.848 217.06 187.696 217.275C187.948 217.343 188.206 217.405 188.47 217.467C189.152 217.633 189.859 217.787 190.59 217.929C190.842 217.985 191.106 218.028 191.365 218.077C192.206 218.231 193.085 218.367 193.988 218.49C194.247 218.527 194.505 218.558 194.769 218.595C195.476 218.681 196.201 218.762 196.944 218.836C197.202 218.86 197.467 218.885 197.731 218.903C198.8 218.996 199.9 219.07 201.018 219.125C201.277 219.132 201.535 219.15 201.799 219.156C202.899 219.193 204.011 219.218 205.142 219.218H205.701C205.965 219.218 206.223 219.212 206.481 219.212C207.692 219.187 208.884 219.15 210.052 219.088C210.316 219.076 210.574 219.058 210.832 219.033C211.766 218.971 212.676 218.903 213.567 218.811C213.825 218.786 214.083 218.755 214.341 218.737C215.681 218.589 216.965 218.404 218.188 218.207C218.452 218.157 218.716 218.114 218.968 218.071C220.468 217.8 221.863 217.485 223.153 217.14C223.417 217.06 223.675 216.986 223.927 216.912C225.101 216.572 226.164 216.196 227.104 215.789C227.375 215.672 227.633 215.555 227.885 215.438C228.653 215.062 229.329 214.667 229.894 214.26C230.183 214.044 230.447 213.828 230.675 213.613C231.474 212.854 231.904 212.046 231.904 211.208V207.323C231.904 208.168 231.48 208.975 230.675 209.734Z" fill="#E4D1D0"/>
<path d="M19.3322 97.2267C14.201 97.4548 10.938 103.967 13.7094 111.292C16.4808 118.624 9.17431 121.486 8.84247 126.542C8.50449 131.599 11.196 173.506 24.7952 175.152C38.3943 176.793 41.7925 168.708 38.1423 158.349C34.4922 147.989 47.9622 141.163 40.2808 133.202C32.5995 125.241 26.8046 121.954 28.8202 111.595C30.8297 101.229 24.0762 97.017 19.3322 97.2267Z" fill="#4152F3"/>
<path d="M19.1234 174.918C25.84 171.958 28.8203 158.996 25.4221 151.67C22.0238 144.339 19.5044 150.03 17.2368 140.928C14.9693 131.833 9.67833 124.125 2.24889 131.703C-5.18054 139.282 8.16663 148.889 8.29568 153.311C8.41858 157.732 7.66273 179.968 19.1234 174.918Z" fill="#9FC3FC"/>
<path d="M28.3167 189.175C28.2552 189.175 28.1937 189.163 28.1323 189.138C27.8742 189.033 27.7452 188.743 27.8496 188.484C30.4551 181.905 28.9312 171.619 27.315 160.729C26.258 153.619 25.1704 146.269 25.2502 139.757C25.2564 139.479 25.4776 139.257 25.7541 139.257H25.7603C26.0368 139.263 26.2642 139.492 26.258 139.769C26.1782 146.201 27.2597 153.508 28.3105 160.575C29.9451 171.6 31.4937 182.016 28.7837 188.848C28.7038 189.058 28.5133 189.175 28.3167 189.175Z" fill="#9FC3FC"/>
<path d="M21.01 191.851C20.967 191.851 20.9179 191.845 20.8748 191.833C20.6045 191.759 20.4508 191.481 20.5246 191.21C21.3419 188.281 19.2402 165.138 14.1214 152.33C14.0169 152.071 14.1459 151.775 14.3979 151.671C14.656 151.566 14.951 151.689 15.0554 151.948C20.1128 164.602 22.4849 187.929 21.4955 191.475C21.434 191.703 21.2313 191.851 21.01 191.851Z" fill="#4152F3"/>
<path d="M13.6543 183.761H35.5678L30.5103 233.302L18.7609 233.456L13.6543 183.761Z" fill="#9FC3FC"/>
<path d="M78.5104 241.288C78.4059 236.349 78.3076 227.648 78.3076 227.648L89.5593 228.554C89.5593 228.554 87.0767 241.048 86.9783 242.262C86.88 243.477 85.7862 244.766 85.7862 244.766L78.5104 241.288Z" fill="#FDB2D0"/>
<path d="M103.091 255.157C103.017 255.317 102.851 255.409 102.691 255.49C100.651 256.513 98.3527 256.877 96.0667 256.97C94.8377 257.019 93.6087 256.994 92.3858 256.945C91.5378 256.914 90.6897 256.877 89.8417 256.834C89.3747 256.809 88.9077 256.785 88.4406 256.76C87.9736 256.735 87.5004 256.711 87.0334 256.686C84.1022 256.538 81.171 256.384 78.2398 256.23C77.5454 256.193 76.7404 256.1 76.3409 255.514C76.2549 255.391 76.1934 255.255 76.1504 255.113C76.1443 255.113 76.1443 255.113 76.1504 255.107C76.0767 254.867 76.0521 254.614 76.0337 254.367C75.8186 251.389 76.2242 248.374 77.2074 245.58C77.5884 244.519 78.0493 243.471 78.3135 242.38C78.4057 242.016 78.4671 241.652 78.504 241.276C78.504 241.276 78.504 241.276 78.5101 241.276C78.59 241.294 80.4151 241.769 82.3385 242.108C84.0715 242.417 85.8781 242.608 86.5725 242.263C86.5971 242.256 86.6217 242.244 86.6401 242.226C87.1686 241.899 87.2731 243.095 87.4574 244.236C87.4759 244.341 87.4881 244.445 87.5127 244.544C87.5434 244.729 87.5803 244.908 87.6233 245.074C87.7217 245.481 87.8568 245.808 88.0535 245.969C88.4714 246.308 88.9322 246.567 89.4116 246.795C89.5406 246.857 89.6697 246.912 89.7987 246.968C90.1428 247.116 90.4931 247.251 90.8434 247.381C91.2735 247.547 91.7098 247.714 92.1461 247.88C92.2752 247.93 92.4042 247.979 92.5394 248.028C93.0986 248.244 93.6578 248.454 94.217 248.669L94.6103 248.824C95.3416 249.101 96.0667 249.379 96.7918 249.656C98.0639 250.143 99.3482 250.637 100.491 251.395C100.682 251.525 100.872 251.666 101.057 251.808C101.72 252.339 102.298 252.986 102.703 253.726C102.845 253.985 102.968 254.262 103.06 254.546C103.127 254.756 103.177 254.978 103.091 255.157Z" fill="#FDA218"/>
<path d="M87.408 244.649C86.646 245.889 85.841 247.097 84.9807 248.269C84.8209 248.485 85.1343 248.762 85.2941 248.546C86.1728 247.344 87.0024 246.111 87.7828 244.834C87.9242 244.606 87.5493 244.421 87.408 244.649Z" fill="#FC8000"/>
<path d="M89.7922 246.215C88.8274 247.689 88.0962 249.28 87.5923 250.969C87.5124 251.228 87.9241 251.315 88.004 251.056C88.4956 249.397 89.2207 247.843 90.1671 246.4C90.3145 246.178 89.9397 245.993 89.7922 246.215Z" fill="#FC8000"/>
<path d="M92.3795 247.375C91.8449 248.571 91.4823 249.817 91.3041 251.118C91.2672 251.383 91.6789 251.475 91.7158 251.204C91.894 249.94 92.2381 248.731 92.7605 247.566C92.865 247.319 92.4901 247.128 92.3795 247.375Z" fill="#FC8000"/>
<path d="M94.346 248.33C93.9834 249.372 93.7991 250.433 93.7745 251.531C93.7683 251.802 94.1862 251.777 94.1924 251.512C94.2169 250.445 94.4074 249.422 94.7516 248.416C94.8438 248.164 94.432 248.077 94.346 248.33Z" fill="#FC8000"/>
<path d="M102.802 254.527C102.722 254.688 102.556 254.774 102.396 254.854C100.362 255.878 98.0639 256.26 95.7902 256.377C94.5674 256.439 93.3445 256.427 92.1216 256.396C91.1261 256.371 90.1306 256.334 89.1351 256.297C88.8217 256.285 88.5144 256.266 88.201 256.26C87.7402 256.242 87.2731 256.223 86.8 256.199C83.8872 256.081 80.9682 255.964 78.0555 255.841C77.3611 255.816 76.5683 255.73 76.1689 255.156C76.1628 255.144 76.1566 255.132 76.1443 255.119C76.1382 255.119 76.1382 255.119 76.1443 255.113C75.9477 254.799 75.9047 254.416 75.8801 254.04C75.6957 251.124 76.132 248.17 77.1398 245.426C77.527 244.371 78.0063 243.335 78.2767 242.25C78.289 242.293 78.3013 242.336 78.3136 242.379C78.4979 243.089 78.4303 243.853 78.2275 244.556C77.9817 245.413 77.5823 246.215 77.3119 247.06C76.808 248.614 76.7466 250.322 77.1398 251.925C77.2812 252.493 77.484 253.066 77.8957 253.473C78.4979 254.077 79.4012 254.201 80.2431 254.244C82.3693 254.367 84.514 254.225 86.6463 254.182C88.4223 254.145 90.1921 254.182 91.9373 254.497C93.4674 254.774 94.9914 255.261 96.5277 255.169C97.769 255.095 98.9673 254.632 99.9382 253.855C100.399 253.491 100.817 253.035 100.995 252.468C101.057 252.258 101.081 252.036 101.057 251.82C101.72 252.351 102.298 252.998 102.703 253.738C102.728 253.806 102.753 253.874 102.777 253.942C102.845 254.139 102.888 254.349 102.802 254.527Z" fill="white"/>
<path d="M120.395 238.982C119.357 234.154 117.611 225.625 117.611 225.625L128.832 224.374C128.832 224.374 128.759 237.114 128.894 238.322C129.029 239.531 128.199 241.011 128.199 241.011L120.395 238.982Z" fill="#FDB2D0"/>
<path d="M147.151 247.911C147.108 248.083 146.967 248.207 146.825 248.312C145.019 249.705 142.825 250.501 140.6 251.031C139.402 251.315 138.191 251.524 136.981 251.709C136.145 251.839 135.303 251.968 134.461 252.085C134 252.147 133.533 252.215 133.072 252.283C132.605 252.351 132.145 252.412 131.677 252.48C128.771 252.893 125.864 253.3 122.958 253.713C122.263 253.812 121.464 253.874 120.954 253.374C120.844 253.269 120.764 253.146 120.696 253.017C120.69 253.017 120.69 253.017 120.696 253.01C120.579 252.788 120.512 252.542 120.444 252.307C119.67 249.422 119.498 246.388 119.934 243.459C120.106 242.342 120.358 241.226 120.413 240.104C120.432 239.728 120.426 239.358 120.389 238.988C120.389 238.988 120.389 238.988 120.395 238.988C120.475 238.994 122.355 239.111 124.316 239.074C126.073 239.043 127.886 238.889 128.507 238.414C128.531 238.402 128.55 238.384 128.568 238.365C129.029 237.946 129.355 239.099 129.754 240.184C129.791 240.283 129.828 240.382 129.865 240.474C129.932 240.647 130 240.819 130.074 240.974C130.252 241.35 130.442 241.652 130.664 241.769C131.137 242.022 131.641 242.188 132.157 242.318C132.292 242.355 132.433 242.386 132.569 242.416C132.937 242.497 133.306 242.558 133.675 242.626C134.129 242.706 134.59 242.786 135.051 242.867C135.192 242.891 135.328 242.916 135.463 242.941C136.053 243.045 136.643 243.144 137.233 243.249L137.651 243.323C138.419 243.459 139.187 243.588 139.949 243.724C141.288 243.958 142.647 244.199 143.906 244.729C144.121 244.821 144.33 244.92 144.539 245.031C145.289 245.426 145.983 245.95 146.518 246.597C146.708 246.825 146.874 247.072 147.022 247.331C147.114 247.51 147.206 247.713 147.151 247.911Z" fill="#FDA218"/>
<path d="M129.766 240.579C129.256 241.942 128.691 243.28 128.064 244.6C127.947 244.84 128.31 245.056 128.426 244.815C129.066 243.465 129.643 242.096 130.166 240.696C130.264 240.443 129.864 240.332 129.766 240.579Z" fill="#FC8000"/>
<path d="M132.402 241.664C131.733 243.298 131.315 245 131.143 246.751C131.118 247.023 131.536 247.029 131.561 246.757C131.733 245.037 132.15 243.372 132.802 241.775C132.912 241.528 132.507 241.417 132.402 241.664Z" fill="#FC8000"/>
<path d="M135.162 242.312C134.861 243.588 134.744 244.883 134.812 246.19C134.824 246.462 135.242 246.468 135.229 246.197C135.162 244.92 135.272 243.668 135.561 242.423C135.629 242.164 135.223 242.047 135.162 242.312Z" fill="#FC8000"/>
<path d="M137.276 242.873C137.116 243.964 137.141 245.043 137.325 246.129C137.368 246.394 137.78 246.295 137.731 246.03C137.552 244.982 137.546 243.94 137.694 242.885C137.731 242.614 137.313 242.608 137.276 242.873Z" fill="#FC8000"/>
<path d="M146.751 247.349C146.702 247.522 146.555 247.639 146.42 247.75C144.613 249.144 142.431 249.958 140.225 250.5C139.039 250.796 137.835 251.012 136.63 251.216C135.647 251.382 134.664 251.536 133.681 251.684C133.367 251.734 133.066 251.777 132.753 251.826C132.292 251.894 131.831 251.962 131.37 252.036C128.488 252.474 125.6 252.918 122.718 253.356C122.036 253.46 121.243 253.534 120.739 253.047C120.727 253.035 120.721 253.023 120.708 253.016C120.702 253.016 120.702 253.016 120.708 253.01C120.457 252.739 120.34 252.369 120.248 252.005C119.516 249.175 119.381 246.196 119.848 243.31C120.033 242.2 120.303 241.09 120.364 239.98C120.383 240.017 120.407 240.054 120.42 240.104C120.739 240.764 120.813 241.528 120.745 242.262C120.665 243.15 120.426 244.013 120.315 244.895C120.119 246.517 120.377 248.207 121.065 249.705C121.311 250.235 121.618 250.759 122.103 251.08C122.804 251.561 123.72 251.506 124.549 251.388C126.663 251.099 128.74 250.55 130.823 250.106C132.556 249.736 134.301 249.428 136.077 249.403C137.632 249.384 139.218 249.576 140.711 249.187C141.915 248.879 143.003 248.194 143.814 247.251C144.195 246.801 144.521 246.276 144.588 245.684C144.613 245.469 144.588 245.247 144.527 245.037C145.277 245.432 145.971 245.956 146.506 246.603C146.543 246.665 146.579 246.727 146.616 246.788C146.721 246.955 146.801 247.152 146.751 247.349Z" fill="white"/>
<path d="M132.618 234.135H112.148C112.148 234.135 107.22 146.762 103.09 150.339C102.328 150.998 101.511 154.304 100.731 159.249C98.2297 174.69 95.7839 206.121 94.5795 222.93C94.5795 222.949 94.5795 222.949 94.5795 222.949C94.1002 229.744 93.8175 234.135 93.8175 234.135L83.5736 234.098L73.2744 234.061C73.2744 234.061 84.8149 131.605 86.7629 124.723C87.3283 122.75 90.364 122.022 94.3644 121.985C104.27 121.899 120.229 126.061 120.229 126.061C120.549 126.789 120.868 127.646 121.169 128.639C127.284 148.322 129.852 217.627 132.618 234.135Z" fill="#4152F3"/>
<path d="M120.617 213.977C121.059 218.423 121.133 226.482 121.078 234.129H112.149C112.149 234.129 107.22 146.756 103.091 150.333C103.091 150.333 104.793 142.15 107.896 141.65C110.993 141.157 119.627 203.858 120.617 213.977Z" fill="#322FE6"/>
<path d="M121.169 128.633C118.121 129.897 104.172 129.984 99.2437 131.495C94.3337 133.005 93.1477 138.734 93.074 141.651C93.0002 144.549 82.0681 230.799 82.0681 231.872C82.0865 231.977 82.6519 232.816 83.5736 234.098L73.2744 234.061C73.2744 234.061 84.8149 131.606 86.7629 124.724C87.3283 122.75 90.364 122.023 94.3644 121.986C108.191 123.762 121.169 128.633 121.169 128.633Z" fill="#322FE6"/>
<path d="M100.731 159.249C98.2299 174.69 95.7842 206.12 94.5797 222.93C93.873 218.54 93.2524 212.83 93.7809 208.753C94.5982 202.433 97.1668 173.746 100.731 159.249Z" fill="#86A8FF"/>
<path d="M132.618 234.135H128.329C126.719 231.274 126.731 226.045 127.05 221.506C127.493 215.118 125.864 182.818 123.947 171.983C122.03 161.167 120.543 132.265 121.163 128.633C127.284 148.322 129.853 217.627 132.618 234.135Z" fill="#86A8FF"/>
<path d="M86.3568 143.155C86.2154 143.155 86.0741 143.087 85.9881 142.957C85.8529 142.754 85.9082 142.476 86.111 142.341C86.9467 141.78 90.1299 137.765 92.2315 133.258C92.336 133.036 92.6002 132.943 92.8214 133.042C93.0427 133.147 93.141 133.412 93.0365 133.634C90.9103 138.197 87.6165 142.402 86.6026 143.081C86.5288 143.136 86.4428 143.155 86.3568 143.155Z" fill="#05009F"/>
<path d="M121.98 141.65C122.122 141.65 122.263 141.583 122.349 141.453C122.484 141.25 122.429 140.972 122.226 140.836C121.39 140.275 118.207 136.261 116.106 131.753C116.001 131.531 115.737 131.439 115.516 131.537C115.294 131.642 115.196 131.907 115.301 132.129C117.427 136.693 120.721 140.898 121.735 141.576C121.808 141.626 121.894 141.65 121.98 141.65Z" fill="#05009F"/>
<path d="M103.084 150.339C103.047 148.236 101.67 128.818 102.064 128.078C102.457 127.338 108.215 128.078 108.215 128.078C108.215 128.078 107.957 146.941 107.404 148.125C106.851 149.309 103.084 150.339 103.084 150.339Z" fill="#05009F"/>
<path d="M121.685 128.744C121.046 129.884 108.725 127.979 101.603 128.478C100.165 128.583 98.6963 128.781 97.2399 129.046C97.2399 129.046 97.2399 129.046 97.2215 129.064C91.4635 130.075 85.896 131.925 83.5547 131.414C80.6296 130.772 84.0709 129.638 85.0787 125.543C85.5765 123.607 84.7407 114.036 83.8743 104.213C83.7514 102.863 83.6285 101.512 83.5179 100.156C83.143 95.9071 82.8112 91.8125 82.5961 88.4703C82.3503 84.3943 82.3134 81.459 82.6698 80.7869C82.9156 80.3244 83.2167 79.9359 83.61 79.5968C83.9849 79.2576 84.4273 78.974 84.9558 78.7458C87.0144 77.7468 90.2713 77.2535 95.1321 76.0757C96.8159 75.6872 98.8192 75.3481 100.89 75.1322C103.975 74.7931 107.256 74.7068 109.985 74.9534C110.464 74.9904 110.925 75.0397 111.367 75.1322C111.613 75.1692 111.884 75.2062 112.203 75.2556C113.832 75.5577 115.091 76.0387 115.749 76.7479C116.136 77.1733 116.314 77.6728 116.228 78.2401C116.105 79.0788 116.265 81.422 116.585 84.6964C116.781 86.5464 117.009 88.6985 117.273 91.0294C117.519 93.0582 117.771 95.2288 118.053 97.4672C118.09 97.7879 118.139 98.127 118.176 98.4662C119.239 107.007 120.481 116.306 121.157 122.318C121.335 123.866 121.476 125.179 121.581 126.234C121.667 127.085 121.704 127.745 121.722 128.17C121.734 128.491 121.716 128.67 121.685 128.744Z" fill="#FDA218"/>
<path d="M126.805 88.8407C123.204 90.0678 119.978 90.777 117.268 91.0298C116.168 91.1531 115.16 91.1901 114.238 91.1346C113.494 91.1161 112.818 91.0483 112.198 90.9373C107.663 90.1542 110.637 77.8829 111.258 75.515C111.331 75.2683 111.362 75.1265 111.362 75.1265C111.608 75.1635 111.878 75.2005 112.198 75.2498C114.84 75.5704 119.928 75.8356 125.527 75.5334C125.649 75.9959 125.772 76.4954 125.865 77.0257C126.184 78.629 126.399 80.5098 126.54 82.3782C126.719 84.7893 126.786 87.1696 126.805 88.8407Z" fill="#FDA218"/>
<path d="M165.002 59.5128C163.46 60.4193 161.721 61.3997 161.334 62.0225C160.854 62.7687 161.758 63.2312 162.63 63.6751C163.515 64.1376 164.388 64.5816 163.675 65.3648C163.288 65.8087 162.507 66.1479 161.567 66.4316C160.43 66.7707 159.035 67.0544 157.683 67.375C156.227 67.6957 154.832 68.0657 153.91 68.6022C151.372 70.0636 148.417 78.0677 137.497 84.0615C133.705 86.1458 130.104 87.7059 126.81 88.8467C126.792 87.1756 126.724 84.7891 126.546 82.3904C126.405 80.5219 126.19 78.635 125.87 77.0379C125.784 76.5014 125.655 76.0081 125.532 75.5456C129.004 75.3483 132.673 74.9228 136.114 74.1581C139.463 73.4305 142.603 72.3637 145.086 70.8344C148.828 68.559 151.803 66.0492 154.408 63.8108C158.556 60.2713 161.745 57.3915 165.488 57.1757C169.119 56.9475 167.294 58.1623 165.002 59.5128Z" fill="#FDB2D0"/>
<path d="M95.8023 231.07H71.4492V234.524H95.8023V231.07Z" fill="#322FE6"/>
<path d="M134.019 231.07H109.666V234.524H134.019V231.07Z" fill="#4152F3"/>
<path d="M134.019 231.07V234.524H129.053C128.291 233.192 127.493 231.693 127.296 231.07H134.019Z" fill="#86A8FF"/>
<path d="M121.667 234.524H109.666V231.07H121.17C121.114 232.125 121.452 233.654 121.667 234.524Z" fill="#322FE6"/>
<path d="M85.0977 231.07L89.7925 234.524H95.8024V231.07H85.0977Z" fill="#4152F3"/>
<path d="M121.151 122.319C115.94 121.165 106.299 119.47 106.299 119.47C106.299 119.47 105.715 118.847 105.856 113.476C105.997 108.709 115.449 104.528 118.177 98.4604C119.234 107.007 120.475 116.306 121.151 122.319Z" fill="#FCA838"/>
<path d="M121.716 128.17C121.274 128.577 120.598 128.879 119.959 128.99C118.22 129.274 108.437 125.648 102.39 126.764C100.509 127.104 98.758 127.991 97.234 129.04C97.234 129.04 97.234 129.04 97.2156 129.058C91.4576 130.07 85.8901 131.92 83.5489 131.408C80.6238 130.766 84.065 129.632 85.0728 125.537C85.5706 123.601 84.7349 114.031 83.8684 104.207C85.0913 96.2897 86.4555 89.673 87.6108 88.8406C90.3392 86.8303 92.4162 87.6504 92.4162 87.6504L88.7783 89.3462C89.0119 94.5199 89.3314 100.471 88.342 103.689C87.3342 106.908 87.7767 115.751 90.7202 118.754C93.6637 121.745 117.648 124.692 120.696 125.796C121.071 125.938 121.354 126.08 121.581 126.222C121.667 127.085 121.698 127.745 121.716 128.17Z" fill="#FC8000"/>
<path d="M123.652 126.499C123.21 126.857 122.835 127.104 122.515 127.264C120.69 128.152 119.787 126.216 109.733 124.915C107.994 124.68 106.224 124.612 104.449 124.649C94.1862 124.791 84.1512 128.596 81.0172 128.633C77.3302 128.651 74.2822 121.979 74.0303 105.404C73.975 102.826 74.104 100.495 74.3498 98.3433C75.6096 98.5036 76.7956 98.7009 77.9324 98.8921C81.6871 99.5704 84.7719 100.44 87.064 101.242C85.6629 105.367 84.9931 110.331 86.3205 116.306C86.6216 117.694 92.2566 118.884 98.7828 119.328H98.8012C101.192 119.488 103.711 119.562 106.12 119.47H106.298C108.32 119.396 110.25 119.235 111.989 118.97C121.526 117.515 126.577 124.15 123.652 126.499Z" fill="#FDB2D0"/>
<path d="M92.1336 90.9431C90.6649 93.6132 88.4834 96.9739 87.0638 101.241C86.3203 100.976 85.4845 100.705 84.5628 100.439C84.2248 100.353 83.8745 100.242 83.5181 100.156C81.8897 99.7118 80.0093 99.2678 77.9322 98.8917C76.7954 98.6943 75.6094 98.5032 74.3496 98.3429C75.4987 87.8845 79.6651 82.3347 83.6041 79.5968C84.065 79.2761 84.5075 78.9925 84.9499 78.7458C88.723 77.0007 90.4621 78.3204 91.6297 80.6698C92.3548 82.1436 92.8525 84.0305 93.5101 85.8126C93.9955 87.1199 93.2827 88.8095 92.1336 90.9431Z" fill="#FDA218"/>
<path d="M97.2217 78.9C95.2368 79.2392 93.3749 79.825 91.6358 80.6637C88.0532 82.3163 85.0052 84.9863 82.5963 88.4704C80.5746 91.3871 78.9953 94.8897 77.9322 98.8917C76.7954 98.6944 75.6094 98.5033 74.3496 98.3429C75.4987 87.8846 79.6651 82.3348 83.6041 79.5969C83.979 79.2577 84.4214 78.974 84.9499 78.7459C87.0085 77.7469 90.2654 77.2536 95.1262 76.0758C96.81 75.6873 98.8133 75.3482 100.884 75.1323C102.5 76.5013 101.597 78.1539 97.2217 78.9Z" fill="#FC8000"/>
<path d="M118.613 50.6703C118.557 50.7751 118.508 50.8861 118.434 50.9724C118.416 50.9909 118.398 50.9909 118.398 50.9909C117.918 51.7926 117.23 52.4647 116.376 52.8964C111.521 55.3136 93.6512 60.6353 93.6512 60.6353C93.8109 61.1718 93.6143 61.8069 93.1903 62.1831C92.7478 62.5407 92.0903 62.6085 91.5925 62.3619C90.6339 61.8624 90.511 60.5489 90.6892 59.4821C90.8859 58.4153 91.2361 57.2745 90.7937 56.3002C90.4557 55.5356 89.7306 55.0731 89.1468 54.4688C88.1513 53.439 87.6228 51.9405 87.8502 50.5223C88.096 49.0978 89.1591 47.8214 90.5417 47.4267C91.9613 47.0382 93.6942 47.4822 94.745 46.4462C95.507 45.7001 95.5623 44.4915 96.1461 43.5973C97.0494 42.2099 98.9974 41.994 100.632 42.2284C102.242 42.4442 103.877 42.956 105.456 42.586C105.474 42.586 105.511 42.5675 105.53 42.5675C106.875 42.2469 107.957 41.3034 109.217 40.7361C111.927 39.4904 115.405 40.1688 117.457 42.3394C119.522 44.4976 119.995 48.0187 118.613 50.6703Z" fill="#05009F"/>
<path d="M112.007 48.321V66.0928C112.007 69.065 109.506 71.7289 106.353 72.0187V78.4935C106.353 80.2695 105.628 81.8727 104.473 83.032C104.295 83.2109 104.117 83.3712 103.926 83.5315C102.826 84.401 101.444 84.919 99.938 84.919C96.3922 84.919 93.5225 82.0392 93.5225 78.4997V53.6612L95.2247 52.0085L96.4291 50.8492L98.1682 48.1113L109.776 48.2902L112.007 48.321Z" fill="#FDB2D0"/>
<path d="M112.608 51.9342C111.816 53.4018 104.435 52.7729 100.908 51.5149C97.3808 50.2569 98.9847 53.5745 96.373 54.0123C95.7647 54.1171 95.2177 53.8088 94.8613 53.2785L96.1395 52.0452L97.983 49.147L110.249 49.332C112.117 50.5838 112.608 51.9342 112.608 51.9342Z" fill="#FE93BC"/>
<path d="M114.637 51.774C114.637 51.774 111.14 53.5561 106.495 51.3485C103.447 49.8994 99.9195 49.2272 99.1514 49.85C98.3894 50.4729 98.2849 53.5993 95.3168 54.5674C95.3168 54.5674 95.6364 60.518 93.2705 60.3515C90.9046 60.1851 92.2012 50.9415 92.2012 50.9415L97.9285 47.9939L104.221 46.6743L110.188 47.402L114.815 48.5798L114.637 51.774Z" fill="#05009F"/>
<path d="M103.919 83.519C102.825 84.3947 101.437 84.9188 99.9311 84.9188C96.3854 84.9188 93.5156 82.0391 93.5156 78.481V59.7041L94.3821 60.6414C94.3698 60.9251 93.3989 67.7205 98.6345 71.8459C103.311 75.5334 104.589 80.9414 103.919 83.519Z" fill="#FE93BC"/>
<path d="M95.7834 56.7565L94.5236 61.0792C94.5236 61.0792 92.6801 60.703 91.5801 59.5869C91.0332 59.0381 90.6768 58.2858 90.7997 57.33C91.0455 55.48 92.4466 55.1224 93.7801 55.517C94.5421 55.7205 95.2856 56.2015 95.7834 56.7565Z" fill="#FDB2D0"/>
<path d="M104.454 124.649C94.1921 124.791 84.1571 128.596 81.0231 128.633C77.336 128.651 74.2881 121.979 74.0361 105.404C73.9808 102.826 74.1099 100.495 74.3557 98.3433C75.6154 98.5036 76.8014 98.7009 77.9383 98.8921C76.0947 106.366 78.9645 123.262 82.4058 124.255C85.847 125.254 94.7943 124.489 102.064 124.255C103.852 124.205 104.559 124.347 104.454 124.649Z" fill="#FE93BC"/>
<path d="M98.7825 119.334C94.1368 119.636 85.3985 119.155 85.9146 118.483C86.4308 117.805 81.9633 110.479 87.0638 101.248C85.6627 105.373 84.9929 110.337 86.3202 116.312C86.6213 117.694 92.2564 118.884 98.7825 119.334Z" fill="#FE93BC"/>
<path d="M123.652 126.499C123.209 126.857 122.834 127.104 122.515 127.264C122.92 124.828 121.519 124.631 118.846 122.534C116.345 120.598 111.859 119.704 106.298 119.476C108.32 119.402 110.249 119.241 111.988 118.976C121.525 117.515 126.577 124.15 123.652 126.499Z" fill="#FCCDE0"/>
<path d="M165.003 59.5131C165.359 58.73 165.144 58.1811 163.497 58.6066C159.847 59.5501 158.642 64.3723 154.402 63.7988C158.55 60.2592 161.74 57.3795 165.482 57.1637C169.12 56.9479 167.295 58.1626 165.003 59.5131Z" fill="#FCCDE0"/>
<path d="M163.675 65.3649C163.288 65.8089 162.508 66.1481 161.567 66.4317C162.084 65.6486 162.612 64.6003 162.63 63.6753C163.515 64.1378 164.382 64.5818 163.675 65.3649Z" fill="#FCCDE0"/>
<path d="M157.683 67.3748C156.227 67.6954 154.832 68.0654 153.91 68.6019C151.372 70.0634 148.416 78.0675 137.496 84.0613C133.705 86.1455 130.104 87.7056 126.81 88.8464C126.792 87.1753 126.724 84.7889 126.546 82.3901C137.41 79.9544 149.817 72.5546 151.735 69.4221C153.167 67.0726 155.219 67.0726 157.683 67.3748Z" fill="#FE93BC"/>
<path d="M117.267 91.0297C117.513 93.0584 117.764 95.229 118.047 97.4674C116.787 95.0132 116.456 92.6453 116.197 91.0543C116.007 89.8827 115.958 88.5384 115.939 87.4839C115.903 86.041 116.99 84.7214 118.944 83.9012C121.71 82.7604 123.35 82.8961 126.546 82.3843C126.724 84.783 126.792 87.1695 126.81 88.8406C123.209 90.0677 119.983 90.783 117.267 91.0297Z" fill="#FC8000"/>
<path d="M125.864 77.0317C122.478 77.4387 118.969 77.3524 115.743 76.748C114.163 76.4829 112.639 76.0574 111.257 75.5209C110.814 75.3421 110.39 75.1633 109.979 74.9536C110.458 74.9906 110.919 75.0399 111.361 75.1324C111.607 75.1694 111.877 75.2064 112.197 75.2558C114.839 75.5764 119.927 75.8416 125.526 75.5394C125.655 76.0019 125.778 76.5014 125.864 77.0317Z" fill="#FCA838"/>
<path d="M136.114 74.1519C133.171 75.6256 129.588 76.6246 125.87 77.0316C125.784 76.4951 125.655 76.0018 125.532 75.5393C129.004 75.342 132.673 74.9165 136.114 74.1519Z" fill="#FCCDE0"/>
<path d="M112.007 55.7207V66.0927C112.007 69.0649 109.506 71.7289 106.353 72.0187V73.9426C103.815 73.3938 102.881 72.2653 104.405 72.0372C107.687 71.5007 110.114 69.6199 110.821 65.9015C111.454 62.6395 110.938 59.4206 112.007 55.7207Z" fill="#FCCDE0"/>
<path d="M106.341 72.0244V74.7315L100.688 71.0933C100.687 71.0933 103.256 72.0244 106.341 72.0244Z" fill="#FE93BC"/>
<path d="M91.5869 59.5806C91.04 59.0318 90.6836 58.2794 90.8065 57.3236C91.0523 55.4737 92.4534 55.116 93.7869 55.5107C91.7283 56.1828 91.0707 58.0328 91.5869 59.5806Z" fill="#FCCDE0"/>
<path d="M118.613 50.6701C118.557 50.7749 118.508 50.8859 118.435 50.9722C118.416 50.9907 118.398 50.9907 118.398 50.9907C116.714 52.557 114.409 53.3032 114.938 52.2179C115.663 50.7934 117.206 43.8746 113.838 42.0802C110.698 40.4091 107.668 42.7585 105.456 42.5797C105.474 42.5797 105.511 42.5612 105.53 42.5612C106.876 42.2405 107.957 41.297 109.217 40.7297C111.927 39.4841 115.405 40.1624 117.457 42.333C119.522 44.4974 119.995 48.0185 118.613 50.6701Z" fill="#4152F3"/>
</g>
<defs>
<clipPath id="clip0_601_1502">
<rect width="264" height="257" fill="white"/>
</clipPath>
</defs>
</svg>
