<svg width="260" height="242" viewBox="0 0 260 242" fill="none" xmlns="http://www.w3.org/2000/svg">
<path d="M124.281 75.5548C124.015 90.2913 123.357 109.361 122.408 121.54C121.868 128.43 121.236 133.123 120.547 133.557C117.75 135.339 96.9079 137.12 96.3993 133.557C95.8907 129.994 98.1361 100.993 91.4245 100.993C84.7006 100.993 55.9748 106.083 55.7205 90.31C55.4662 74.5368 58.4374 48.7635 58.4374 48.7635C58.915 46.1501 59.3616 43.3009 59.9633 40.6627C60.3479 38.9557 60.7945 37.3231 61.3466 35.9202C62.3514 33.3131 63.7161 31.4633 65.7196 31.1591C70.4711 30.4453 90.6306 28.5768 89.787 36.5534C89.2473 41.6187 84.5889 53.4129 82.2442 61.9357C81.5805 64.3256 81.1029 66.4547 80.9416 68.1121C80.7679 69.844 80.9602 71.0544 81.6549 71.489C85.3891 73.8602 92.5039 74.034 95.5557 71.489C97.4662 69.8937 96.7777 63.562 97.3483 58.6457C97.5592 56.8642 97.9252 55.2689 98.6385 54.1453C99.0852 53.4253 99.6868 52.9038 100.468 52.6618C105.89 50.9609 123.351 48.4159 124.195 54.6978C124.455 56.6656 124.48 65.0022 124.281 75.5548Z" fill="#4152F3"/>
<path d="M122.415 121.539C121.875 128.429 121.243 133.122 120.554 133.556C117.757 135.338 96.9148 137.119 96.4061 133.556C95.8975 129.993 98.1429 100.992 91.4314 100.992C84.7074 100.992 55.9817 106.082 55.7274 90.3088C55.473 74.5357 58.4442 48.7624 58.4442 48.7624C58.9219 46.149 59.3685 43.2998 59.9702 40.6616C66.6817 46.9684 77.0654 60.9538 74.4912 71.8913C71.7867 83.4186 61.3224 92.8353 65.8505 97.1557C70.3849 101.482 93.652 95.9638 97.8824 99.8745C102.125 103.773 96.8651 127.684 103.819 129.72C108.886 131.21 117.403 122.575 122.415 121.539Z" fill="#322FE6"/>
<path d="M89.7936 36.5458C89.2539 41.6111 84.5955 53.4052 82.2508 61.9281C80.2907 57.9677 82.8029 44.0879 82.8029 40.6613C82.8029 37.1479 67.2522 34.3856 61.3594 35.9188C62.3642 33.3117 63.7289 31.4619 65.7324 31.1577C70.4715 30.4439 90.6372 28.5692 89.7936 36.5458Z" fill="#86A8FF"/>
<path d="M124.282 75.5533C122.849 71.4501 120.256 64.7337 119.785 60.9099C119.177 55.975 104.736 56.7261 98.6328 54.1438C99.0794 53.4237 99.6811 52.9023 100.463 52.6602C105.884 50.9593 123.345 48.4143 124.189 54.6962C124.456 56.664 124.48 65.0006 124.282 75.5533Z" fill="#86A8FC"/>
<path d="M91.6917 77.7944C80.3527 78.5703 79.2548 73.5299 80.942 68.1045C80.7683 69.8364 80.9606 71.0469 81.6554 71.4814C85.3895 73.8526 92.5043 74.0265 95.5561 71.4814C97.4666 69.8861 96.7781 63.5545 97.3488 58.6382C99.067 65.6092 103.124 76.9998 91.6917 77.7944Z" fill="#322FE6"/>
<path d="M80.1299 128.981C77.8906 142.699 42.0067 142.128 19.5459 139.49C16.4569 139.124 13.6159 138.714 11.1596 138.311C1.07982 136.622 2.36382 130.402 7.48123 123.605C12.6855 116.684 21.872 109.167 27.0887 105.237C37.4289 97.4347 48.6128 78.4337 45.3935 67.2416C45.2322 66.6643 45.0399 66.0933 44.8352 65.5408C41.1941 55.5592 32.3488 51.3878 26.7537 56.4717C17.7223 63.4613 12.6421 74.5354 3.61681 65.3732C2.56231 64.3055 1.73733 63.033 1.14805 61.6363C-3.2064 51.4064 4.78916 34.0007 25.7674 32.2999C26.4622 32.2316 27.1693 32.1881 27.8951 32.1695C53.4511 31.406 68.4498 49.3455 68.4498 70.0784C68.4498 79.1972 61.8312 88.8932 55.7214 96.9257C55.7214 96.9381 55.7214 96.9381 55.7214 96.9381C54.6048 98.4155 53.5069 99.8308 52.4648 101.172C46.2619 109.192 42.2362 114.747 49.6363 114.909C62.2841 115.182 76.4081 113.984 79.6833 122.147C80.3966 123.928 80.5889 126.169 80.1299 128.981Z" fill="#4152F3"/>
<path d="M55.7082 96.9257C56.4402 91.7983 62.3764 80.5442 62.1221 71.5372C61.7747 59.4761 61.7747 57.9801 46.1868 48.3089C32.1557 39.606 21.5612 37.5017 25.7605 32.2999C26.4553 32.2316 27.1624 32.1881 27.8881 32.1695C53.4442 31.406 68.4428 49.3455 68.4428 70.0784C68.4366 79.1972 61.8181 88.8932 55.7082 96.9257Z" fill="#86A8FF"/>
<path d="M79.6769 122.141C77.1648 121.166 73.6663 120.676 69.9135 120.39C63.1399 119.881 44.8351 121.582 40.1829 120.39C35.5369 119.211 41.4421 110.216 52.4585 101.166C46.2556 109.186 42.2299 114.741 49.63 114.903C62.2777 115.182 76.4018 113.978 79.6769 122.141Z" fill="#322FE6"/>
<path d="M19.5462 139.49C16.4572 139.124 13.6162 138.714 11.1599 138.311C1.08013 136.623 2.36413 130.403 7.48154 123.605C8.61668 131.023 11.9849 136.182 19.5462 139.49Z" fill="#322FE6"/>
<path d="M44.8288 65.5412C41.1877 55.5596 32.3423 51.3882 26.7473 56.4721C17.7158 63.4617 12.6356 74.5358 3.61036 65.3736C2.55587 64.306 1.73088 63.0334 1.1416 61.6367C6.37067 62.81 13.4544 50.544 27.0388 50.6744C38.5514 50.8047 43.7805 58.8248 44.8288 65.5412Z" fill="#322FE6"/>
<path d="M196.155 5.47109C195.802 7.9727 187.217 33.4543 177.007 62.2755C176.703 63.1384 176.387 64.0136 176.07 64.8889C162.058 104.343 145.372 148.87 142.575 149.037C137.674 149.31 124.27 149.546 123.048 145.871C122.558 144.394 129.852 121.253 138.822 93.9398C147.921 66.1924 158.764 34.1371 164.917 16.1417C167.765 7.78648 169.613 2.46669 169.818 2.00733C170.866 -0.432197 173.174 -0.0162971 176.498 0.101645C180.884 0.256831 197.011 -0.525308 196.155 5.47109Z" fill="#FDA218"/>
<path d="M196.155 5.47123C195.801 7.97284 187.216 33.4544 177.006 62.2757C178.34 50.3884 179.785 28.7368 182.446 20.3319C185.362 11.1014 175.878 14.0127 164.917 16.1481C167.764 7.79282 169.613 2.47303 169.817 2.01368C170.866 -0.425849 173.173 -0.00994942 176.498 0.107992C180.883 0.256971 197.011 -0.525168 196.155 5.47123Z" fill="#FCA838"/>
<path d="M176.076 64.8892C162.064 104.344 145.378 148.87 142.58 149.037C137.68 149.311 124.276 149.546 123.054 145.872C122.564 144.394 129.858 121.253 138.828 93.9401C141.607 93.3317 144.919 90.2466 147.493 84.6413C153.014 72.5616 164.247 66.3852 176.076 64.8892Z" fill="#FC8000"/>
<path d="M222.747 121.507C221.711 123.413 220.743 125.151 219.881 126.678C217.431 130.992 215.719 133.649 215.173 133.854C211.96 135.077 191.559 135.698 188.854 133.854C186.15 132.011 225.755 62.1704 224.223 58.1852C222.685 54.1938 195.547 58.3404 193.401 54.8084C192.681 53.6165 192.619 50.8418 192.967 47.645C193.637 41.3692 195.876 33.4982 197.693 33.194C199.288 32.9271 202.097 32.6974 205.664 32.5422C222.604 31.7663 256.683 32.5857 259.344 38.4145C261.838 43.8522 236.12 96.9446 222.747 121.507Z" fill="#4152F3"/>
<path d="M222.747 121.507C215.862 119.658 227.833 106.591 230.749 98.428C234.563 87.745 250.834 53.3991 245.493 45.0004C240.45 37.0735 211.631 39.7986 205.664 32.5359C222.604 31.7599 256.683 32.5793 259.344 38.4081C261.838 43.8521 236.12 96.9444 222.747 121.507Z" fill="#9FC3FC"/>
<path d="M202.78 126.411C201.49 130.44 215.967 124.729 219.881 126.678C217.431 130.993 215.719 133.649 215.173 133.854C211.96 135.077 191.559 135.698 188.854 133.854C186.15 132.011 225.755 62.1705 224.223 58.1853C222.685 54.1939 195.547 58.3405 193.401 54.8084C192.681 53.6166 192.619 50.8419 192.967 47.645C198.977 57.7321 214.851 49.3334 224.701 53.151C234.564 56.9686 236.089 58.7502 231.257 68.1607C226.431 77.5712 204.281 121.7 202.78 126.411Z" fill="#322FE6"/>
<path d="M75.3653 178.504V181.421C75.3653 182.408 74.9062 183.284 74.1929 183.855C73.6657 184.283 72.9833 184.544 72.2514 184.544H25.5992C24.8052 184.544 24.0857 184.239 23.5336 183.762C22.8947 183.184 22.4854 182.359 22.4854 181.421V178.504C22.4854 177.467 22.9816 176.548 23.7694 175.977C24.278 175.599 24.9169 175.388 25.5992 175.388H72.2514C72.9213 175.388 73.5416 175.593 74.0502 175.959C74.8442 176.53 75.3653 177.455 75.3653 178.504Z" fill="#FDA218"/>
<path d="M27.8268 176.703H26.9521V184.549H27.8268V176.703Z" fill="#FC8000"/>
<path d="M31.4918 176.703H30.6172V184.549H31.4918V176.703Z" fill="#FC8000"/>
<path d="M35.1647 176.703H34.29V184.549H35.1647V176.703Z" fill="#FC8000"/>
<path d="M38.8365 176.703H37.9619V184.549H38.8365V176.703Z" fill="#FC8000"/>
<path d="M42.5084 176.703H41.6338V184.549H42.5084V176.703Z" fill="#FC8000"/>
<path d="M46.1813 176.703H45.3066V184.549H46.1813V176.703Z" fill="#FC8000"/>
<path d="M49.8463 176.703H48.9717V184.549H49.8463V176.703Z" fill="#FC8000"/>
<path d="M57.191 176.703H56.3164V184.549H57.191V176.703Z" fill="#FC8000"/>
<path d="M53.5191 176.703H52.6445V184.549H53.5191V176.703Z" fill="#FC8000"/>
<path d="M60.8626 176.703H59.9756V184.549H60.8626V176.703Z" fill="#FC8000"/>
<path d="M64.5345 176.703H63.6475V184.549H64.5345V176.703Z" fill="#FC8000"/>
<path d="M68.2064 176.703H67.3193V184.549H68.2064V176.703Z" fill="#FC8000"/>
<path d="M71.8792 176.703H70.9922V184.549H71.8792V176.703Z" fill="#FC8000"/>
<path d="M70.1856 187.666V190.583C70.1856 191.57 69.7266 192.446 69.0132 193.017C68.486 193.445 67.8036 193.706 67.0717 193.706H20.4195C19.6256 193.706 18.906 193.402 18.354 192.924C17.7151 192.346 17.3057 191.521 17.3057 190.583V187.666C17.3057 186.629 17.8019 185.711 18.5897 185.14C19.0983 184.761 19.7372 184.55 20.4195 184.55H67.0717C67.7416 184.55 68.3619 184.755 68.8706 185.121C69.6645 185.692 70.1856 186.617 70.1856 187.666Z" fill="#F4900B"/>
<path d="M22.6471 185.86H21.7725V193.706H22.6471V185.86Z" fill="#E56E03"/>
<path d="M26.318 185.86H25.4434V193.706H26.318V185.86Z" fill="#E56E03"/>
<path d="M29.9898 185.86H29.1152V193.706H29.9898V185.86Z" fill="#E56E03"/>
<path d="M33.6568 185.86H32.7822V193.706H33.6568V185.86Z" fill="#E56E03"/>
<path d="M37.3287 185.86H36.4541V193.706H37.3287V185.86Z" fill="#E56E03"/>
<path d="M41.0006 185.86H40.126V193.706H41.0006V185.86Z" fill="#E56E03"/>
<path d="M44.6734 185.86H43.7988V193.706H44.6734V185.86Z" fill="#E56E03"/>
<path d="M52.0113 185.86H51.1367V193.706H52.0113V185.86Z" fill="#E56E03"/>
<path d="M48.3453 185.86H47.4707V193.706H48.3453V185.86Z" fill="#E56E03"/>
<path d="M55.6888 185.86H54.8018V193.706H55.6888V185.86Z" fill="#E56E03"/>
<path d="M59.3548 185.86H58.4678V193.706H59.3548V185.86Z" fill="#E56E03"/>
<path d="M63.0267 185.86H62.1396V193.706H63.0267V185.86Z" fill="#E56E03"/>
<path d="M66.6995 185.86H65.8125V193.706H66.6995V185.86Z" fill="#E56E03"/>
<path d="M72.1768 196.822V199.74C72.1768 200.727 71.7178 201.602 71.0044 202.173C70.4772 202.601 69.7949 202.862 69.0629 202.862H22.4107C21.6168 202.862 20.8972 202.558 20.3452 202.08C19.7063 201.503 19.2969 200.677 19.2969 199.74V196.822C19.2969 195.786 19.7931 194.867 20.5809 194.296C21.0895 193.917 21.7284 193.706 22.4107 193.706H69.0629C69.7328 193.706 70.3531 193.911 70.8618 194.277C71.6619 194.848 72.1768 195.773 72.1768 196.822Z" fill="#FDA218"/>
<path d="M24.6432 195.022H23.7686V202.868H24.6432V195.022Z" fill="#FC8000"/>
<path d="M28.3092 195.022H27.4346V202.868H28.3092V195.022Z" fill="#FC8000"/>
<path d="M31.9811 195.022H31.1064V202.868H31.9811V195.022Z" fill="#FC8000"/>
<path d="M35.6539 195.022H34.7793V202.868H35.6539V195.022Z" fill="#FC8000"/>
<path d="M39.3248 195.022H38.4502V202.868H39.3248V195.022Z" fill="#FC8000"/>
<path d="M42.9977 195.022H42.123V202.868H42.9977V195.022Z" fill="#FC8000"/>
<path d="M46.6646 195.022H45.79V202.868H46.6646V195.022Z" fill="#FC8000"/>
<path d="M54.0084 195.022H53.1338V202.868H54.0084V195.022Z" fill="#FC8000"/>
<path d="M50.3365 195.022H49.4619V202.868H50.3365V195.022Z" fill="#FC8000"/>
<path d="M57.68 195.022H56.793V202.868H57.68V195.022Z" fill="#FC8000"/>
<path d="M61.3519 195.022H60.4648V202.868H61.3519V195.022Z" fill="#FC8000"/>
<path d="M65.0247 195.022H64.1377V202.868H65.0247V195.022Z" fill="#FC8000"/>
<path d="M68.6966 195.022H67.8096V202.868H68.6966V195.022Z" fill="#FC8000"/>
<path d="M226.357 170.683C230.935 165.847 242.497 161.142 238.558 148.423C234.619 135.704 219.875 141.936 218.473 154.022C217.077 166.101 226.357 170.683 226.357 170.683Z" fill="#4152F3"/>
<path d="M232.517 172.687C236.797 174.363 242.807 180.546 249.916 174.723C257.024 168.901 249.215 161.079 241.126 163.32C233.031 165.555 232.517 172.687 232.517 172.687Z" fill="#4152F3"/>
<path d="M225.209 189.889C224.93 189.889 224.7 189.659 224.7 189.38C224.7 185.407 226.462 157.995 226.995 155.319C227.051 155.04 227.33 154.866 227.591 154.922C227.87 154.978 228.044 155.245 227.988 155.518C227.516 157.864 225.711 184.761 225.711 189.38C225.717 189.659 225.494 189.889 225.209 189.889Z" fill="white"/>
<path d="M225.768 178.448C225.731 178.448 225.688 178.442 225.644 178.436C225.371 178.367 225.204 178.094 225.272 177.821C226.686 172.067 241.059 170.13 241.666 170.049C241.939 170.012 242.2 170.211 242.237 170.49C242.274 170.769 242.076 171.024 241.797 171.061C241.654 171.08 227.511 172.986 226.258 178.063C226.209 178.293 225.998 178.448 225.768 178.448Z" fill="white"/>
<path d="M208.722 186.71L212.5 201.732C212.649 202.322 213.182 202.738 213.79 202.738H237.969C238.546 202.738 239.054 202.366 239.234 201.819L244.091 186.797C244.37 185.941 243.731 185.059 242.826 185.059H210.006C209.15 185.053 208.511 185.866 208.722 186.71Z" fill="#4152F3"/>
<path d="M141.966 94.9953C141.011 94.6166 140.124 88.254 143.616 84.8212C147.115 81.3885 147.872 81.0037 151.624 76.106C155.377 71.2083 165.86 70.9538 169.036 72.096C172.212 73.2381 173.483 76.106 174.563 76.4226C175.642 76.7391 180.666 73.8154 186.702 78.651C192.737 83.4866 186.175 90.0355 189.14 98.2604C192.105 106.485 196.087 111.402 194.307 116.746C192.526 122.091 194.983 125.058 199.393 128.956C203.797 132.855 203.288 138.367 201.26 144.984C199.226 151.601 205.751 155.586 196.006 158.299C186.261 161.012 143.809 157.07 136.688 148.038C129.567 139.006 141.011 135.189 139.231 128.578C137.451 121.96 138.214 120.564 140.248 117.001C142.283 113.438 147.878 101.358 141.966 94.9953Z" fill="#05009F"/>
<path d="M162.622 128.447C162.622 128.447 145.663 154.332 128.71 159.851C127.935 160.105 127.166 160.316 126.39 160.484C125.336 160.707 124.275 160.838 123.221 160.881C123.066 160.894 122.923 160.894 122.774 160.894C121.757 160.937 120.739 160.956 119.741 160.962C119.455 160.974 119.17 160.981 118.885 160.981L119.598 155.605V155.561L119.834 153.767C119.846 153.755 119.846 153.736 119.846 153.724L120.051 152.197L120.479 148.994C120.479 148.982 120.479 148.982 120.479 148.975L120.926 145.574L121.738 139.41C128.611 136.753 142.555 131.309 154.787 129.254C157.504 128.795 160.159 128.497 162.622 128.447Z" fill="#4152F3"/>
<path d="M196.007 158.293C196.007 158.293 192.477 172.986 183.489 184.997C176.604 194.184 166.537 201.807 152.394 200.106C119.742 196.189 123.222 160.875 123.222 160.875L125.814 158.746L162.623 128.441C167.728 128.168 172.336 129.316 176.35 131.322C183.682 134.996 189.028 141.551 191.776 147.697C193.06 150.589 193.954 152.694 194.58 154.227C196.007 157.765 196.007 158.293 196.007 158.293Z" fill="#4152F3"/>
<path d="M183.489 184.997C176.604 194.184 166.536 201.807 152.394 200.106C119.741 196.189 123.221 160.875 123.221 160.875C122.049 160.918 120.883 160.943 119.741 160.955C119.58 158.981 119.487 157.163 119.599 155.605V155.561C119.642 154.922 119.723 154.32 119.834 153.767C119.847 153.755 119.847 153.736 119.847 153.724C120.114 152.513 120.579 151.557 121.342 150.937C123.445 149.199 124.028 153.215 125.814 158.739C125.988 159.298 126.18 159.882 126.391 160.471C128.425 166.213 131.924 172.998 139.516 176.691C155.563 184.494 157.616 191.273 162.281 186.269C166.939 181.272 168.292 178.131 166.257 170.496C164.223 162.861 165.668 161.34 165.668 161.34C165.668 161.34 167.876 163.215 170.649 167.535C170.655 167.548 179.215 174.159 183.489 184.997Z" fill="#322FE6"/>
<path d="M200.864 194.848C194.171 201.745 181.43 203.328 181.43 203.328L171.195 201.776H171.183L155.837 199.454C155.837 199.454 172.107 192.638 175.159 187.548C178.211 182.458 173.124 176.865 169.403 167.542C171.816 165.853 174.843 164.407 177.994 163.196C186.579 159.882 196.007 158.292 196.007 158.292C196.007 158.292 201.943 165.506 204.648 182.806C205.46 187.989 203.711 191.9 200.864 194.848Z" fill="#FDB2D0"/>
<path d="M200.862 194.848C200.782 193.954 200.819 193.085 201.005 192.427C201.867 189.336 194.647 173.091 191.093 162.092C191.093 162.092 189.312 160.881 196.005 158.299C196.005 158.299 201.941 165.512 204.646 182.812C205.459 187.989 203.709 191.9 200.862 194.848Z" fill="#FCCDE0"/>
<path d="M182.62 191.459C176.683 195.022 176.801 193.656 179.456 194.848C182.111 196.04 181.615 201.236 171.188 201.776H171.175L155.829 199.454C155.829 199.454 172.099 192.638 175.151 187.548C178.203 182.458 173.117 176.865 169.395 167.542C171.808 165.853 174.835 164.407 177.986 163.196C180.145 164.115 181.249 165.332 181.249 165.332C183.804 174.159 188.55 187.896 182.62 191.459Z" fill="#FE93BC"/>
<path d="M170.245 164.997C167.931 166.157 166.517 167.796 168.043 169.913C169.569 172.036 170.921 171.272 173.551 170.335C176.175 169.404 196.855 162.303 199.144 160.974C201.433 159.646 199.74 157.51 197.786 156.033C195.838 154.568 173.638 163.302 170.245 164.997Z" fill="#86A8FF"/>
<path d="M147.326 99.9613C143.53 97.5404 140.763 100.309 141.514 103.593C142.265 106.876 147.704 108.633 147.704 108.633L147.326 99.9613Z" fill="#FE93BC"/>
<path d="M126.776 150.949C126.695 152.569 127.161 154.804 127.837 157.094C128.104 158.019 128.395 158.944 128.711 159.85C130.014 163.618 131.49 166.865 131.49 166.865C131.49 166.865 131.193 177.194 126.77 168.646C125.461 166.114 124.221 163.823 123.16 161.706C123.03 161.433 122.893 161.154 122.775 160.893C121.2 157.634 120.133 154.81 120.052 152.215C120.003 151.104 120.133 150.049 120.48 149.012C120.48 149 120.48 149 120.48 148.994C120.828 147.945 120.939 146.784 120.927 145.592L121.739 139.428C128.612 136.771 142.556 131.327 154.789 129.272C154.807 131.073 154.373 132.786 154.373 132.786C139.74 139.775 127.03 145.964 126.776 150.949Z" fill="#322FE6"/>
<path d="M176.417 114.903C176.206 115.84 175.983 116.784 175.747 117.721C173.185 128.193 169.985 138.094 168.545 140.657C167.683 142.197 166.052 143.097 164.123 143.55C163.912 143.612 163.695 143.649 163.471 143.693C158.925 144.5 153.1 143.01 151.556 141.303C150.811 140.477 150.65 138.342 150.78 135.785V135.772C150.811 135.245 150.849 134.704 150.904 134.146C151.351 129.118 152.654 123.289 152.958 122.594C153.423 121.532 153.565 123.314 149.031 120.831C148.677 120.638 148.287 120.421 147.871 120.167C142.779 117.113 143.628 103.028 144.782 95.5106C144.925 94.5919 145.067 93.7725 145.21 93.0773C145.21 93.0773 145.005 91.7365 147.884 88.0306C148.318 87.4782 148.82 86.8699 149.397 86.2119C151.692 83.5737 158.813 82.506 165.512 83.344C171.783 84.1199 177.713 86.5471 179.004 90.9233C180.25 95.1133 178.718 104.996 176.417 114.903Z" fill="#FDB2D0"/>
<path d="M176.417 114.902C172.739 114.151 169.296 107.931 169.482 104.846C169.675 101.674 176.15 103.959 175.778 99.8928C175.394 95.8207 169.737 93.6543 166.685 93.1453C163.633 92.6363 164.08 86.2178 164.08 86.2178C163.193 90.085 149.67 95.6283 144.782 95.5166C144.925 94.5979 145.068 93.7785 145.21 93.0832C145.21 93.0832 145.006 91.7424 147.884 88.0366C151.413 86.4164 157.963 84.8025 163.571 83.6479C164.235 83.5176 164.88 83.412 165.512 83.3438C171.784 84.1197 177.714 86.5468 179.004 90.9231C180.251 95.1131 178.718 104.995 176.417 114.902Z" fill="#FE93BC"/>
<path d="M164.079 86.2118C161.983 89.7128 152.827 92.6427 148.194 93.7228C143.554 94.8029 142.344 95.1878 141.966 94.9953C141.587 94.8029 143.299 87.3912 149.403 83.0522C155.507 78.7132 167.454 74.9639 175.654 80.7492C183.854 86.5346 180.802 98.4777 179.152 98.4281C177.502 98.3784 178.389 90.4142 175.021 90.0977C171.647 89.7811 165.673 92.2516 164.079 86.2118Z" fill="#05009F"/>
<path d="M177.807 112.172C182.404 112.172 186.131 108.442 186.131 103.841C186.131 99.2404 182.404 95.5107 177.807 95.5107C173.209 95.5107 169.482 99.2404 169.482 103.841C169.482 108.442 173.209 112.172 177.807 112.172Z" fill="#FCA838"/>
<path d="M149.782 115.859C149.782 117.075 151.066 118.056 152.642 118.056C154.217 118.056 155.501 117.069 155.501 115.859C155.501 114.642 154.217 113.661 152.642 113.661C151.066 113.661 149.782 114.642 149.782 115.859Z" fill="#FCA838"/>
<path d="M152.896 116.368C152.654 116.368 152.437 116.188 152.394 115.939C152.351 115.66 152.537 115.399 152.816 115.356C152.958 115.331 167.219 112.953 173.323 106.845C173.521 106.647 173.844 106.647 174.042 106.845C174.241 107.044 174.241 107.367 174.042 107.565C167.709 113.903 153.579 116.262 152.983 116.361C152.952 116.368 152.921 116.368 152.896 116.368Z" fill="#FCA838"/>
<path d="M130.081 106.703C129.275 111.824 126.316 119.304 123.45 125.958C119.983 134.04 116.658 140.918 117.489 140.918C117.824 140.918 119.362 140.341 121.732 139.422L120.051 152.11L118.879 160.987C102.273 161.229 88.9742 159.143 89.9109 149.18C90.9282 138.373 116.472 114.071 117.365 109.248C117.843 106.641 115.572 103.611 114.388 99.7006C113.383 96.3299 113.166 92.3137 116.23 87.3664C116.552 86.8449 116.881 86.398 117.204 86.0131C123.692 78.4835 131.781 95.9264 130.081 106.703Z" fill="#FDB2D0"/>
<path d="M130.08 106.703C129.274 111.824 126.315 119.304 123.449 125.958C123.307 125.803 123.183 125.623 123.102 125.4C121.986 122.346 124.87 110.005 124.392 102.91C123.983 96.7648 122.544 91.1346 117.203 86.0197C123.691 78.4838 131.78 95.9268 130.08 106.703Z" fill="#FCCDE0"/>
<path d="M94.1537 146.002C93.186 152.129 117.632 152.129 120.051 152.11L118.879 160.987C102.273 161.229 88.9742 159.143 89.9109 149.18C90.9282 138.373 116.472 114.071 117.365 109.248C117.843 106.641 115.572 103.611 114.388 99.7007C117.954 103.692 122.197 105.84 121.335 108.615C120.249 112.085 95.171 139.559 94.1537 146.002Z" fill="#FE93BC"/>
<path d="M116.54 162.47C116.596 164.804 117.384 166.592 119.698 166.164C122.011 165.735 121.912 164.332 122.16 161.831C122.408 159.329 124.586 139.72 124.381 137.342C124.182 134.965 121.788 135.524 119.834 136.548C117.886 137.566 116.46 159.05 116.54 162.47Z" fill="#86A8FF"/>
<path d="M194.58 154.233C189.971 149.95 179.482 141.868 176.35 131.328C183.681 135.002 189.028 141.558 191.776 147.703C193.054 150.589 193.954 152.7 194.58 154.233Z" fill="#86A8FF"/>
<path d="M161.449 119.645C160.817 120.111 153.913 125.312 152.641 127.969C152.002 129.31 151.37 131.855 150.905 134.146C151.351 129.118 152.654 123.289 152.958 122.594C153.423 121.532 153.566 123.314 149.031 120.831C153.857 123.016 160.767 119.943 161.449 119.645Z" fill="#FE93FC"/>
<path d="M163.471 143.693C158.925 144.5 153.1 143.01 151.555 141.303C150.811 140.478 150.65 138.342 150.78 135.785C153.336 139.838 159.508 142.408 163.471 143.693Z" fill="#FE93FC"/>
<path d="M175.747 117.721C173.186 128.193 169.985 138.094 168.546 140.658C167.684 142.197 166.052 143.097 164.123 143.55C159.955 142.265 156.456 137.809 160.922 134.146C165.773 130.18 171.201 123.258 175.747 117.721Z" fill="#FCCDE0"/>
<path d="M36.4541 207.4L52.6437 242H59.9756L43.7984 206.382L36.4541 207.4Z" fill="#B7CDF9"/>
<path d="M86.1088 207.4L69.9129 242H62.5811L78.7645 206.382L86.1088 207.4Z" fill="#B7CDF9"/>
<path d="M147.666 207.4L163.856 242H171.188L155.004 206.382L147.666 207.4Z" fill="#B7CDF9"/>
<path d="M197.315 207.4L181.126 242H173.794L189.971 206.382L197.315 207.4Z" fill="#B7CDF9"/>
<path d="M243.365 202.732H2.7041V208.499H243.365V202.732Z" fill="#C0D2FF"/>
<path d="M77.9033 162.092H143.828L153.66 196.189H92.8151L77.9033 162.092Z" fill="#05009F"/>
<path d="M92.8154 196.189C92.8154 196.189 93.6652 202.44 94.0436 202.633C94.422 202.825 182.702 202.695 183.527 202.695C184.352 202.695 186.833 197.605 186.07 197.288C185.307 196.972 153.66 196.189 153.66 196.189H92.8154Z" fill="#040078"/>
<path d="M77.9033 162.092L153.66 196.189H92.8151L77.9033 162.092Z" fill="#040078"/>
<path d="M117.387 186.501C119.95 186.085 121.691 183.668 121.275 181.103C120.859 178.538 118.444 176.796 115.88 177.212C113.317 177.628 111.576 180.045 111.992 182.61C112.408 185.175 114.824 186.917 117.387 186.501Z" fill="#F5F7FC"/>
</svg>
